<mxfile host="65bd71144e" pages="2">
    <diagram name="Page-1" id="pteTAIGlAc0p7t94jHmJ">
        <mxGraphModel dx="1055" dy="593" grid="1" gridSize="10" guides="1" tooltips="1" connect="1" arrows="1" fold="1" page="1" pageScale="1" pageWidth="827" pageHeight="1169" math="0" shadow="0">
            <root>
                <mxCell id="0"/>
                <mxCell id="1" parent="0"/>
                <mxCell id="v1ZU1jeRRtBtOZHkuNUI-102" value="Â Login &amp; Linking" style="swimlane;startSize=0;align=left;swimlaneFillColor=#e9dddd;opacity=50;perimeterSpacing=1;fontColor=#FFFFFF;fontStyle=1;strokeWidth=2;fillStyle=solid;fillColor=#FFFFFF;labelBackgroundColor=#000000;labelBorderColor=default;rounded=1;" parent="1" vertex="1">
                    <mxGeometry x="11" y="230" width="1699" height="2520" as="geometry"/>
                </mxCell>
                <mxCell id="v1ZU1jeRRtBtOZHkuNUI-1" value="" style="group;rounded=1;" parent="v1ZU1jeRRtBtOZHkuNUI-102" vertex="1" connectable="0">
                    <mxGeometry x="759" y="2210" width="460" height="242" as="geometry"/>
                </mxCell>
                <mxCell id="6JdxFMKGJGce-00UMF8G-4" value="validate phone (phone) : bool" style="swimlane;startSize=0;swimlaneFillColor=#47B347;fontStyle=1;align=left;fontSize=14;labelBackgroundColor=#FFFFFF;labelBorderColor=#000000;whiteSpace=wrap;fontColor=#000000;rounded=1;" parent="v1ZU1jeRRtBtOZHkuNUI-1" vertex="1">
                    <mxGeometry x="240" y="132" width="220" height="110" as="geometry"/>
                </mxCell>
                <mxCell id="mAUX-7upIq6EtIR3mSXo-9" value="RegX phone validation" style="text;html=1;align=center;verticalAlign=middle;whiteSpace=wrap;rounded=1;labelBackgroundColor=default;labelBorderColor=default;textShadow=1;fontSize=23;fontStyle=1;" parent="6JdxFMKGJGce-00UMF8G-4" vertex="1">
                    <mxGeometry x="37" y="30.560000000000002" width="150" height="60" as="geometry"/>
                </mxCell>
                <mxCell id="mAUX-7upIq6EtIR3mSXo-5" value="validate email (email) : bool" style="swimlane;startSize=0;swimlaneFillColor=#47B347;fontStyle=1;align=left;fontSize=14;labelBackgroundColor=#FFFFFF;labelBorderColor=#000000;whiteSpace=wrap;fontColor=#000000;rounded=1;" parent="v1ZU1jeRRtBtOZHkuNUI-1" vertex="1">
                    <mxGeometry y="133" width="210" height="109" as="geometry"/>
                </mxCell>
                <mxCell id="mAUX-7upIq6EtIR3mSXo-8" value="RegX email validation" style="text;html=1;align=center;verticalAlign=middle;whiteSpace=wrap;rounded=1;labelBackgroundColor=default;labelBorderColor=default;textShadow=1;fontSize=23;fontStyle=1;" parent="mAUX-7upIq6EtIR3mSXo-5" vertex="1">
                    <mxGeometry x="40" y="25" width="130" height="60" as="geometry"/>
                </mxCell>
                <mxCell id="mAUX-7upIq6EtIR3mSXo-10" value="validate identifier(identifier, type) : bool" style="swimlane;startSize=0;swimlaneFillColor=#47B347;fontStyle=1;align=left;fontSize=14;labelBackgroundColor=#FFFFFF;labelBorderColor=#000000;whiteSpace=wrap;fontColor=#000000;rounded=1;" parent="v1ZU1jeRRtBtOZHkuNUI-1" vertex="1">
                    <mxGeometry x="79" width="298" height="109" as="geometry"/>
                </mxCell>
                <mxCell id="mAUX-7upIq6EtIR3mSXo-11" value="identifier" style="rhombus;whiteSpace=wrap;html=1;fillColor=#FF9999;fontColor=#333333;strokeColor=#666666;rounded=1;" parent="mAUX-7upIq6EtIR3mSXo-10" vertex="1">
                    <mxGeometry x="110" y="13.999999999999886" width="80" height="71.29" as="geometry"/>
                </mxCell>
                <mxCell id="mAUX-7upIq6EtIR3mSXo-13" value="e" style="edgeStyle=orthogonalEdgeStyle;rounded=1;orthogonalLoop=1;jettySize=auto;html=1;exitX=0;exitY=0.5;exitDx=0;exitDy=0;entryX=0.75;entryY=0;entryDx=0;entryDy=0;" parent="v1ZU1jeRRtBtOZHkuNUI-1" source="mAUX-7upIq6EtIR3mSXo-11" target="mAUX-7upIq6EtIR3mSXo-5" edge="1">
                    <mxGeometry relative="1" as="geometry">
                        <mxPoint x="175.03999999999996" y="-93.30000000000007" as="targetPoint"/>
                    </mxGeometry>
                </mxCell>
                <mxCell id="mAUX-7upIq6EtIR3mSXo-12" value="p" style="edgeStyle=orthogonalEdgeStyle;rounded=1;orthogonalLoop=1;jettySize=auto;html=1;exitX=1;exitY=0.5;exitDx=0;exitDy=0;entryX=0.25;entryY=0;entryDx=0;entryDy=0;" parent="v1ZU1jeRRtBtOZHkuNUI-1" source="mAUX-7upIq6EtIR3mSXo-11" target="6JdxFMKGJGce-00UMF8G-4" edge="1">
                    <mxGeometry relative="1" as="geometry">
                        <mxPoint x="297.03999999999996" y="7.699999999999932" as="targetPoint"/>
                    </mxGeometry>
                </mxCell>
                <mxCell id="v1ZU1jeRRtBtOZHkuNUI-16" value="" style="group;rounded=1;" parent="v1ZU1jeRRtBtOZHkuNUI-102" vertex="1" connectable="0">
                    <mxGeometry x="139" y="2220" width="480" height="242" as="geometry"/>
                </mxCell>
                <mxCell id="v1ZU1jeRRtBtOZHkuNUI-17" value="send sms (phone, notification)" style="swimlane;startSize=0;swimlaneFillColor=#47B347;fontStyle=1;align=left;fontSize=14;labelBackgroundColor=#FFFFFF;labelBorderColor=#000000;whiteSpace=wrap;fontColor=#000000;rounded=1;" parent="v1ZU1jeRRtBtOZHkuNUI-16" vertex="1">
                    <mxGeometry x="240" y="132" width="230" height="110" as="geometry"/>
                </mxCell>
                <mxCell id="v1ZU1jeRRtBtOZHkuNUI-18" value="send verification message" style="text;html=1;align=center;verticalAlign=middle;whiteSpace=wrap;rounded=1;labelBackgroundColor=default;labelBorderColor=default;textShadow=1;fontSize=23;fontStyle=1;" parent="v1ZU1jeRRtBtOZHkuNUI-17" vertex="1">
                    <mxGeometry x="37" y="12.559999999999999" width="157" height="90" as="geometry"/>
                </mxCell>
                <mxCell id="v1ZU1jeRRtBtOZHkuNUI-19" value="send email (email, notification)" style="swimlane;startSize=0;swimlaneFillColor=#47B347;fontStyle=1;align=left;fontSize=14;labelBackgroundColor=#FFFFFF;labelBorderColor=#000000;whiteSpace=wrap;fontColor=#000000;rounded=1;" parent="v1ZU1jeRRtBtOZHkuNUI-16" vertex="1">
                    <mxGeometry y="133" width="230" height="109" as="geometry"/>
                </mxCell>
                <mxCell id="v1ZU1jeRRtBtOZHkuNUI-20" value="send&amp;nbsp; verification&lt;div&gt;email&lt;/div&gt;" style="text;html=1;align=center;verticalAlign=middle;whiteSpace=wrap;rounded=1;labelBackgroundColor=default;labelBorderColor=default;textShadow=1;fontSize=23;fontStyle=1;" parent="v1ZU1jeRRtBtOZHkuNUI-19" vertex="1">
                    <mxGeometry x="29" y="18" width="150" height="80" as="geometry"/>
                </mxCell>
                <mxCell id="v1ZU1jeRRtBtOZHkuNUI-21" value="notify identifier(identifier, type, notification)" style="swimlane;startSize=0;swimlaneFillColor=#47B347;fontStyle=1;align=left;fontSize=14;labelBackgroundColor=#FFFFFF;labelBorderColor=#000000;whiteSpace=wrap;fontColor=#000000;rounded=1;" parent="v1ZU1jeRRtBtOZHkuNUI-16" vertex="1">
                    <mxGeometry x="58" width="338" height="109" as="geometry"/>
                </mxCell>
                <mxCell id="v1ZU1jeRRtBtOZHkuNUI-22" value="identifier" style="rhombus;whiteSpace=wrap;html=1;fillColor=#FF9999;fontColor=#333333;strokeColor=#666666;rounded=1;" parent="v1ZU1jeRRtBtOZHkuNUI-21" vertex="1">
                    <mxGeometry x="136" y="13.999999999999886" width="80" height="71.29" as="geometry"/>
                </mxCell>
                <mxCell id="v1ZU1jeRRtBtOZHkuNUI-23" value="e" style="edgeStyle=orthogonalEdgeStyle;rounded=1;orthogonalLoop=1;jettySize=auto;html=1;exitX=0;exitY=0.5;exitDx=0;exitDy=0;entryX=0.5;entryY=0;entryDx=0;entryDy=0;" parent="v1ZU1jeRRtBtOZHkuNUI-16" source="v1ZU1jeRRtBtOZHkuNUI-22" target="v1ZU1jeRRtBtOZHkuNUI-19" edge="1">
                    <mxGeometry relative="1" as="geometry">
                        <mxPoint x="175.03999999999996" y="-93.30000000000007" as="targetPoint"/>
                    </mxGeometry>
                </mxCell>
                <mxCell id="v1ZU1jeRRtBtOZHkuNUI-24" value="p" style="edgeStyle=orthogonalEdgeStyle;rounded=1;orthogonalLoop=1;jettySize=auto;html=1;exitX=1;exitY=0.5;exitDx=0;exitDy=0;" parent="v1ZU1jeRRtBtOZHkuNUI-16" source="v1ZU1jeRRtBtOZHkuNUI-22" target="v1ZU1jeRRtBtOZHkuNUI-17" edge="1">
                    <mxGeometry relative="1" as="geometry">
                        <mxPoint x="297.03999999999996" y="7.699999999999932" as="targetPoint"/>
                    </mxGeometry>
                </mxCell>
                <mxCell id="v1ZU1jeRRtBtOZHkuNUI-87" style="edgeStyle=orthogonalEdgeStyle;rounded=1;orthogonalLoop=1;jettySize=auto;html=1;entryX=0.5;entryY=0;entryDx=0;entryDy=0;" parent="v1ZU1jeRRtBtOZHkuNUI-102" source="v1ZU1jeRRtBtOZHkuNUI-88" target="v1ZU1jeRRtBtOZHkuNUI-89" edge="1">
                    <mxGeometry relative="1" as="geometry"/>
                </mxCell>
                <mxCell id="9fSp8sO44n7Tz8PfT3hy-3" value="Email Linking" style="swimlane;startSize=0;align=left;fillColor=none;fontColor=#FFFFFF;strokeColor=#000000;gradientColor=none;swimlaneFillColor=#AD4D1D;strokeWidth=1;perimeterSpacing=1;opacity=50;labelBackgroundColor=default;labelBorderColor=default;container=0;rounded=1;" parent="v1ZU1jeRRtBtOZHkuNUI-102" vertex="1">
                    <mxGeometry x="90" y="50" width="530" height="2110" as="geometry"/>
                </mxCell>
                <mxCell id="v1ZU1jeRRtBtOZHkuNUI-25" value="Phone Linking" style="swimlane;startSize=0;align=left;labelBackgroundColor=default;fillColor=#ffffff;gradientColor=none;swimlaneFillColor=#a1df8b;opacity=50;fillStyle=solid;labelBorderColor=default;rounded=1;" parent="v1ZU1jeRRtBtOZHkuNUI-102" vertex="1">
                    <mxGeometry x="637" y="49" width="593" height="2110" as="geometry"/>
                </mxCell>
                <mxCell id="6JdxFMKGJGce-00UMF8G-3" value="Send OTP (phone)" style="rounded=1;whiteSpace=wrap;html=1;fontStyle=1;fontSize=15;" parent="v1ZU1jeRRtBtOZHkuNUI-25" vertex="1">
                    <mxGeometry x="18" y="14.45" width="149" height="60" as="geometry"/>
                </mxCell>
                <mxCell id="6JdxFMKGJGce-00UMF8G-13" value="Link Phone (phone, token)" style="rounded=1;whiteSpace=wrap;html=1;fontStyle=1;fontSize=15;" parent="v1ZU1jeRRtBtOZHkuNUI-25" vertex="1">
                    <mxGeometry x="320" y="14.449999999999989" width="120" height="60" as="geometry"/>
                </mxCell>
                <mxCell id="6JdxFMKGJGce-00UMF8G-7" value="server side process" style="swimlane;startSize=0;swimlaneFillColor=#47B347;fontStyle=0;align=left;fontSize=9;rounded=1;" parent="v1ZU1jeRRtBtOZHkuNUI-25" vertex="1">
                    <mxGeometry x="270" y="124.85999999999996" width="220" height="173" as="geometry"/>
                </mxCell>
                <mxCell id="6JdxFMKGJGce-00UMF8G-8" value="max&lt;div&gt;linkable&lt;/div&gt;&lt;div&gt;phones&lt;/div&gt;&lt;div&gt;exceeded&lt;/div&gt;" style="rhombus;whiteSpace=wrap;html=1;fillColor=#FF9999;fontColor=#333333;strokeColor=#666666;rounded=1;" parent="6JdxFMKGJGce-00UMF8G-7" vertex="1">
                    <mxGeometry x="10" y="10" width="110" height="100" as="geometry"/>
                </mxCell>
                <mxCell id="6JdxFMKGJGce-00UMF8G-9" value="yes" style="edgeStyle=orthogonalEdgeStyle;rounded=1;orthogonalLoop=1;jettySize=auto;html=1;entryX=0.5;entryY=0;entryDx=0;entryDy=0;exitX=1;exitY=0.5;exitDx=0;exitDy=0;" parent="6JdxFMKGJGce-00UMF8G-7" source="6JdxFMKGJGce-00UMF8G-8" target="6JdxFMKGJGce-00UMF8G-10" edge="1">
                    <mxGeometry relative="1" as="geometry">
                        <mxPoint x="182.03999999999996" y="101.69999999999993" as="targetPoint"/>
                    </mxGeometry>
                </mxCell>
                <mxCell id="6JdxFMKGJGce-00UMF8G-10" value="response with error" style="rounded=1;whiteSpace=wrap;html=1;fillColor=#5797D9;fontColor=#ffffff;strokeColor=#001DBC;" parent="6JdxFMKGJGce-00UMF8G-7" vertex="1">
                    <mxGeometry x="101" y="105" width="104.07" height="53.12" as="geometry"/>
                </mxCell>
                <mxCell id="6JdxFMKGJGce-00UMF8G-11" value="no" style="edgeStyle=orthogonalEdgeStyle;rounded=1;orthogonalLoop=1;jettySize=auto;html=1;entryX=0.25;entryY=1;entryDx=0;entryDy=0;" parent="6JdxFMKGJGce-00UMF8G-7" edge="1">
                    <mxGeometry relative="1" as="geometry">
                        <mxPoint x="52" y="173" as="targetPoint"/>
                        <mxPoint x="62" y="109.99999999999989" as="sourcePoint"/>
                        <Array as="points">
                            <mxPoint x="62" y="130"/>
                            <mxPoint x="52" y="130"/>
                        </Array>
                    </mxGeometry>
                </mxCell>
                <mxCell id="mAUX-7upIq6EtIR3mSXo-4" style="edgeStyle=orthogonalEdgeStyle;rounded=1;orthogonalLoop=1;jettySize=auto;html=1;" parent="v1ZU1jeRRtBtOZHkuNUI-25" source="6JdxFMKGJGce-00UMF8G-13" target="6JdxFMKGJGce-00UMF8G-7" edge="1">
                    <mxGeometry relative="1" as="geometry"/>
                </mxCell>
                <mxCell id="v1ZU1jeRRtBtOZHkuNUI-76" value="" style="group;rounded=1;" parent="v1ZU1jeRRtBtOZHkuNUI-25" vertex="1" connectable="0">
                    <mxGeometry x="325" y="307.86" width="110" height="170" as="geometry"/>
                </mxCell>
                <mxCell id="v1ZU1jeRRtBtOZHkuNUI-79" value="&lt;font color=&quot;#000000&quot;&gt;{&lt;/font&gt;&lt;div&gt;&lt;font color=&quot;#000000&quot;&gt;phone,&lt;br&gt;&lt;/font&gt;&lt;div&gt;&lt;font color=&quot;#000000&quot;&gt;token,&lt;br&gt;&lt;/font&gt;&lt;div&gt;&lt;font color=&quot;#000000&quot;&gt;type : 'p'&lt;/font&gt;&lt;/div&gt;&lt;div&gt;&lt;font color=&quot;#000000&quot;&gt;}&lt;/font&gt;&lt;/div&gt;&lt;/div&gt;&lt;/div&gt;" style="html=1;whiteSpace=wrap;fillColor=#EBEB5E;strokeColor=#82b366;rounded=1;" parent="v1ZU1jeRRtBtOZHkuNUI-76" vertex="1">
                    <mxGeometry y="64" width="110" height="76" as="geometry"/>
                </mxCell>
                <mxCell id="v1ZU1jeRRtBtOZHkuNUI-78" value="" style="endArrow=none;html=1;rounded=1;entryX=0.5;entryY=0;entryDx=0;entryDy=0;exitX=0.5;exitY=1;exitDx=0;exitDy=0;" parent="v1ZU1jeRRtBtOZHkuNUI-25" source="6JdxFMKGJGce-00UMF8G-7" target="v1ZU1jeRRtBtOZHkuNUI-79" edge="1">
                    <mxGeometry width="50" height="50" relative="1" as="geometry">
                        <mxPoint x="380" y="307.86" as="sourcePoint"/>
                        <mxPoint x="951" y="437.86" as="targetPoint"/>
                        <Array as="points"/>
                    </mxGeometry>
                </mxCell>
                <mxCell id="v1ZU1jeRRtBtOZHkuNUI-82" value="" style="group;rounded=1;" parent="v1ZU1jeRRtBtOZHkuNUI-25" vertex="1" connectable="0">
                    <mxGeometry x="37.5" y="117" width="110" height="170" as="geometry"/>
                </mxCell>
                <mxCell id="v1ZU1jeRRtBtOZHkuNUI-85" value="{&lt;div&gt;phone,&lt;div&gt;&lt;div&gt;type : 'p'&lt;/div&gt;&lt;div&gt;}&lt;/div&gt;&lt;/div&gt;&lt;/div&gt;" style="html=1;whiteSpace=wrap;fillColor=#EBEB5E;strokeColor=#82b366;rounded=1;fontColor=#000000;" parent="v1ZU1jeRRtBtOZHkuNUI-82" vertex="1">
                    <mxGeometry y="64" width="110" height="76" as="geometry"/>
                </mxCell>
                <mxCell id="v1ZU1jeRRtBtOZHkuNUI-84" value="" style="endArrow=none;html=1;rounded=1;entryX=0.5;entryY=0;entryDx=0;entryDy=0;exitX=0.5;exitY=1;exitDx=0;exitDy=0;" parent="v1ZU1jeRRtBtOZHkuNUI-25" source="6JdxFMKGJGce-00UMF8G-3" target="v1ZU1jeRRtBtOZHkuNUI-85" edge="1">
                    <mxGeometry width="50" height="50" relative="1" as="geometry">
                        <mxPoint x="92.5" y="117" as="sourcePoint"/>
                        <mxPoint x="663.5" y="247" as="targetPoint"/>
                        <Array as="points"/>
                    </mxGeometry>
                </mxCell>
                <mxCell id="6JdxFMKGJGce-00UMF8G-5" value="Verify OTP (secret, otp)" style="rounded=1;whiteSpace=wrap;html=1;fontStyle=1;fontSize=15;" parent="v1ZU1jeRRtBtOZHkuNUI-25" vertex="1">
                    <mxGeometry x="214" y="1005" width="192" height="52" as="geometry"/>
                </mxCell>
                <mxCell id="NCtWmSiecl5yez9ghkOs-5" value="" style="group;rounded=1;" parent="v1ZU1jeRRtBtOZHkuNUI-25" vertex="1" connectable="0">
                    <mxGeometry x="255" y="1024" width="110" height="170" as="geometry"/>
                </mxCell>
                <mxCell id="NCtWmSiecl5yez9ghkOs-7" value="{&lt;div&gt;secret_id,&lt;/div&gt;&lt;div&gt;secret -OTP-&lt;/div&gt;&lt;div&gt;}&lt;/div&gt;" style="html=1;whiteSpace=wrap;fillColor=#EBEB5E;strokeColor=#82b366;rounded=1;fontColor=#000000;" parent="NCtWmSiecl5yez9ghkOs-5" vertex="1">
                    <mxGeometry y="64" width="110" height="66" as="geometry"/>
                </mxCell>
                <mxCell id="NCtWmSiecl5yez9ghkOs-59" style="edgeStyle=orthogonalEdgeStyle;rounded=1;orthogonalLoop=1;jettySize=auto;html=1;entryX=0.75;entryY=0;entryDx=0;entryDy=0;exitX=1;exitY=0.5;exitDx=0;exitDy=0;" parent="v1ZU1jeRRtBtOZHkuNUI-25" source="NCtWmSiecl5yez9ghkOs-39" target="v1ZU1jeRRtBtOZHkuNUI-25" edge="1">
                    <mxGeometry relative="1" as="geometry">
                        <Array as="points">
                            <mxPoint x="632" y="1399"/>
                            <mxPoint x="632" y="-20"/>
                            <mxPoint x="445" y="-20"/>
                        </Array>
                    </mxGeometry>
                </mxCell>
                <mxCell id="NCtWmSiecl5yez9ghkOs-39" value="server side process" style="swimlane;startSize=0;swimlaneFillColor=#47B347;fontStyle=0;align=left;fontSize=9;rounded=1;" parent="v1ZU1jeRRtBtOZHkuNUI-25" vertex="1">
                    <mxGeometry x="122.5" y="1188" width="375" height="422" as="geometry"/>
                </mxCell>
                <mxCell id="NCtWmSiecl5yez9ghkOs-40" value="is&lt;br&gt;secret&lt;br&gt;valid" style="rhombus;whiteSpace=wrap;html=1;fillColor=#FF9999;fontColor=#333333;strokeColor=#666666;rounded=1;" parent="NCtWmSiecl5yez9ghkOs-39" vertex="1">
                    <mxGeometry x="148.00000000000023" y="7" width="80" height="71.29" as="geometry"/>
                </mxCell>
                <mxCell id="NCtWmSiecl5yez9ghkOs-41" value="no" style="edgeStyle=orthogonalEdgeStyle;rounded=1;orthogonalLoop=1;jettySize=auto;html=1;entryX=0.5;entryY=0;entryDx=0;entryDy=0;exitX=1;exitY=0.5;exitDx=0;exitDy=0;" parent="NCtWmSiecl5yez9ghkOs-39" source="NCtWmSiecl5yez9ghkOs-40" target="NCtWmSiecl5yez9ghkOs-43" edge="1">
                    <mxGeometry relative="1" as="geometry">
                        <mxPoint x="182.0400000000002" y="88.70000000000005" as="targetPoint"/>
                    </mxGeometry>
                </mxCell>
                <mxCell id="NCtWmSiecl5yez9ghkOs-42" value="yes" style="edgeStyle=orthogonalEdgeStyle;rounded=1;orthogonalLoop=1;jettySize=auto;html=1;entryX=0.25;entryY=0;entryDx=0;entryDy=0;exitX=0;exitY=0.5;exitDx=0;exitDy=0;" parent="NCtWmSiecl5yez9ghkOs-39" source="NCtWmSiecl5yez9ghkOs-40" target="NCtWmSiecl5yez9ghkOs-45" edge="1">
                    <mxGeometry relative="1" as="geometry">
                        <mxPoint x="90.04000000000022" y="127.70000000000005" as="targetPoint"/>
                    </mxGeometry>
                </mxCell>
                <mxCell id="NCtWmSiecl5yez9ghkOs-43" value="response with&amp;nbsp; error&amp;nbsp;" style="rounded=1;whiteSpace=wrap;html=1;fillColor=#5797D9;fontColor=#ffffff;strokeColor=#001DBC;" parent="NCtWmSiecl5yez9ghkOs-39" vertex="1">
                    <mxGeometry x="260.00000000000006" y="67" width="104.07" height="53.12" as="geometry"/>
                </mxCell>
                <mxCell id="NCtWmSiecl5yez9ghkOs-44" style="edgeStyle=orthogonalEdgeStyle;rounded=1;orthogonalLoop=1;jettySize=auto;html=1;entryX=0.5;entryY=0;entryDx=0;entryDy=0;exitX=0.5;exitY=1;exitDx=0;exitDy=0;" parent="NCtWmSiecl5yez9ghkOs-39" source="NCtWmSiecl5yez9ghkOs-45" target="NCtWmSiecl5yez9ghkOs-47" edge="1">
                    <mxGeometry relative="1" as="geometry"/>
                </mxCell>
                <mxCell id="NCtWmSiecl5yez9ghkOs-45" value="Set is_verified to true &amp;amp; set verified_at to now" style="rounded=1;whiteSpace=wrap;html=1;fillColor=#5797D9;fontColor=#ffffff;strokeColor=#001DBC;" parent="NCtWmSiecl5yez9ghkOs-39" vertex="1">
                    <mxGeometry x="14" y="82.12" width="127" height="43.88" as="geometry"/>
                </mxCell>
                <mxCell id="NCtWmSiecl5yez9ghkOs-46" value="response with 200&amp;nbsp;&lt;div&gt;(&quot;create an account&quot;, secret)&lt;/div&gt;" style="rounded=1;whiteSpace=wrap;html=1;fillColor=#5797D9;fontColor=#ffffff;strokeColor=#001DBC;" parent="NCtWmSiecl5yez9ghkOs-39" vertex="1">
                    <mxGeometry x="11.960000000000008" y="351.17" width="183.07" height="59" as="geometry"/>
                </mxCell>
                <mxCell id="NCtWmSiecl5yez9ghkOs-47" value="vm.account_id&lt;br&gt;== null" style="rhombus;whiteSpace=wrap;html=1;fillColor=#FF9999;fontColor=#333333;strokeColor=#666666;rounded=1;" parent="NCtWmSiecl5yez9ghkOs-39" vertex="1">
                    <mxGeometry x="18.5" y="147" width="104.73" height="80" as="geometry"/>
                </mxCell>
                <mxCell id="NCtWmSiecl5yez9ghkOs-48" value="no" style="edgeStyle=orthogonalEdgeStyle;rounded=1;orthogonalLoop=1;jettySize=auto;html=1;exitX=1;exitY=0.5;exitDx=0;exitDy=0;entryX=0.5;entryY=0;entryDx=0;entryDy=0;" parent="NCtWmSiecl5yez9ghkOs-39" source="NCtWmSiecl5yez9ghkOs-47" target="NCtWmSiecl5yez9ghkOs-52" edge="1">
                    <mxGeometry relative="1" as="geometry">
                        <mxPoint x="197.30999999999997" y="251.69999999999993" as="targetPoint"/>
                    </mxGeometry>
                </mxCell>
                <mxCell id="NCtWmSiecl5yez9ghkOs-49" value="yes" style="edgeStyle=orthogonalEdgeStyle;rounded=1;orthogonalLoop=1;jettySize=auto;html=1;entryX=0.5;entryY=0;entryDx=0;entryDy=0;exitX=0.5;exitY=1;exitDx=0;exitDy=0;" parent="NCtWmSiecl5yez9ghkOs-39" source="NCtWmSiecl5yez9ghkOs-47" target="NCtWmSiecl5yez9ghkOs-46" edge="1">
                    <mxGeometry relative="1" as="geometry">
                        <mxPoint x="105.30999999999999" y="290.6999999999998" as="targetPoint"/>
                    </mxGeometry>
                </mxCell>
                <mxCell id="NCtWmSiecl5yez9ghkOs-50" value="response with 200" style="rounded=1;whiteSpace=wrap;html=1;fillColor=#5797D9;fontColor=#ffffff;strokeColor=#001DBC;" parent="NCtWmSiecl5yez9ghkOs-39" vertex="1">
                    <mxGeometry x="156" y="293" width="124" height="52" as="geometry"/>
                </mxCell>
                <mxCell id="NCtWmSiecl5yez9ghkOs-52" value="is_loginable" style="rhombus;whiteSpace=wrap;html=1;fillColor=#FF9999;fontColor=#333333;strokeColor=#666666;rounded=1;" parent="NCtWmSiecl5yez9ghkOs-39" vertex="1">
                    <mxGeometry x="220.5" y="210" width="80" height="71.29" as="geometry"/>
                </mxCell>
                <mxCell id="NCtWmSiecl5yez9ghkOs-53" value="no" style="edgeStyle=orthogonalEdgeStyle;rounded=1;orthogonalLoop=1;jettySize=auto;html=1;entryX=0.25;entryY=0;entryDx=0;entryDy=0;exitX=0;exitY=0.5;exitDx=0;exitDy=0;" parent="NCtWmSiecl5yez9ghkOs-39" source="NCtWmSiecl5yez9ghkOs-52" target="NCtWmSiecl5yez9ghkOs-50" edge="1">
                    <mxGeometry relative="1" as="geometry">
                        <mxPoint x="132.53999999999996" y="207.69999999999982" as="targetPoint"/>
                    </mxGeometry>
                </mxCell>
                <mxCell id="NCtWmSiecl5yez9ghkOs-55" value="responce with tokens" style="rounded=1;whiteSpace=wrap;html=1;fillColor=#5797D9;fontColor=#ffffff;strokeColor=#001DBC;" parent="NCtWmSiecl5yez9ghkOs-39" vertex="1">
                    <mxGeometry x="220" y="353" width="142.6" height="54" as="geometry"/>
                </mxCell>
                <mxCell id="NCtWmSiecl5yez9ghkOs-54" value="yes" style="edgeStyle=orthogonalEdgeStyle;rounded=1;orthogonalLoop=1;jettySize=auto;html=1;exitX=1;exitY=0.5;exitDx=0;exitDy=0;entryX=0.75;entryY=0;entryDx=0;entryDy=0;" parent="NCtWmSiecl5yez9ghkOs-39" source="NCtWmSiecl5yez9ghkOs-52" target="NCtWmSiecl5yez9ghkOs-55" edge="1">
                    <mxGeometry relative="1" as="geometry">
                        <mxPoint x="40.539999999999964" y="246.69999999999982" as="targetPoint"/>
                    </mxGeometry>
                </mxCell>
                <mxCell id="NCtWmSiecl5yez9ghkOs-8" value="" style="endArrow=none;html=1;rounded=1;entryX=0.5;entryY=0;entryDx=0;entryDy=0;exitX=0.5;exitY=1;exitDx=0;exitDy=0;" parent="v1ZU1jeRRtBtOZHkuNUI-25" source="6JdxFMKGJGce-00UMF8G-5" target="NCtWmSiecl5yez9ghkOs-7" edge="1">
                    <mxGeometry width="50" height="50" relative="1" as="geometry">
                        <mxPoint x="312" y="1140" as="sourcePoint"/>
                        <mxPoint x="883" y="1270" as="targetPoint"/>
                        <Array as="points"/>
                    </mxGeometry>
                </mxCell>
                <mxCell id="NCtWmSiecl5yez9ghkOs-6" style="edgeStyle=orthogonalEdgeStyle;rounded=1;orthogonalLoop=1;jettySize=auto;html=1;entryX=0.5;entryY=0;entryDx=0;entryDy=0;" parent="v1ZU1jeRRtBtOZHkuNUI-25" source="NCtWmSiecl5yez9ghkOs-7" target="NCtWmSiecl5yez9ghkOs-39" edge="1">
                    <mxGeometry relative="1" as="geometry">
                        <mxPoint x="312" y="1310" as="targetPoint"/>
                    </mxGeometry>
                </mxCell>
                <mxCell id="v1ZU1jeRRtBtOZHkuNUI-68" style="edgeStyle=orthogonalEdgeStyle;rounded=1;orthogonalLoop=1;jettySize=auto;html=1;entryX=0;entryY=0.25;entryDx=0;entryDy=0;exitX=0.5;exitY=1;exitDx=0;exitDy=0;" parent="v1ZU1jeRRtBtOZHkuNUI-102" source="v1ZU1jeRRtBtOZHkuNUI-70" target="v1ZU1jeRRtBtOZHkuNUI-27" edge="1">
                    <mxGeometry relative="1" as="geometry">
                        <mxPoint x="429" y="586.5" as="targetPoint"/>
                    </mxGeometry>
                </mxCell>
                <mxCell id="v1ZU1jeRRtBtOZHkuNUI-75" style="edgeStyle=orthogonalEdgeStyle;rounded=1;orthogonalLoop=1;jettySize=auto;html=1;entryX=0.25;entryY=0;entryDx=0;entryDy=0;" parent="v1ZU1jeRRtBtOZHkuNUI-102" source="v1ZU1jeRRtBtOZHkuNUI-74" target="v1ZU1jeRRtBtOZHkuNUI-27" edge="1">
                    <mxGeometry relative="1" as="geometry">
                        <mxPoint x="529" y="446" as="targetPoint"/>
                    </mxGeometry>
                </mxCell>
                <mxCell id="v1ZU1jeRRtBtOZHkuNUI-83" style="edgeStyle=orthogonalEdgeStyle;rounded=1;orthogonalLoop=1;jettySize=auto;html=1;entryX=0.75;entryY=0;entryDx=0;entryDy=0;" parent="v1ZU1jeRRtBtOZHkuNUI-102" source="v1ZU1jeRRtBtOZHkuNUI-85" target="v1ZU1jeRRtBtOZHkuNUI-27" edge="1">
                    <mxGeometry relative="1" as="geometry">
                        <mxPoint x="2339" y="256" as="targetPoint"/>
                    </mxGeometry>
                </mxCell>
                <mxCell id="v1ZU1jeRRtBtOZHkuNUI-77" style="edgeStyle=orthogonalEdgeStyle;rounded=1;orthogonalLoop=1;jettySize=auto;html=1;entryX=1;entryY=0.25;entryDx=0;entryDy=0;exitX=0.5;exitY=1;exitDx=0;exitDy=0;" parent="v1ZU1jeRRtBtOZHkuNUI-102" source="v1ZU1jeRRtBtOZHkuNUI-79" target="v1ZU1jeRRtBtOZHkuNUI-27" edge="1">
                    <mxGeometry relative="1" as="geometry">
                        <mxPoint x="2439" y="396.5" as="targetPoint"/>
                    </mxGeometry>
                </mxCell>
                <mxCell id="v1ZU1jeRRtBtOZHkuNUI-88" value="create account &lt;br&gt;(...account_data, secret, security_questions)" style="rounded=1;whiteSpace=wrap;html=1;" parent="v1ZU1jeRRtBtOZHkuNUI-102" vertex="1">
                    <mxGeometry x="545" y="1720" width="170" height="58" as="geometry"/>
                </mxCell>
                <mxCell id="v1ZU1jeRRtBtOZHkuNUI-89" value="server side process" style="swimlane;startSize=0;swimlaneFillColor=#47B347;fontStyle=0;align=left;fontSize=9;rounded=1;" parent="v1ZU1jeRRtBtOZHkuNUI-102" vertex="1">
                    <mxGeometry x="490" y="1809" width="280" height="333" as="geometry"/>
                </mxCell>
                <mxCell id="v1ZU1jeRRtBtOZHkuNUI-90" value="response with error" style="rounded=1;whiteSpace=wrap;html=1;fillColor=#5797D9;fontColor=#ffffff;strokeColor=#001DBC;" parent="v1ZU1jeRRtBtOZHkuNUI-89" vertex="1">
                    <mxGeometry x="170.93" y="92.53000000000003" width="104.07" height="53.12" as="geometry"/>
                </mxCell>
                <mxCell id="v1ZU1jeRRtBtOZHkuNUI-91" value="is &lt;br&gt;acc_data&lt;br&gt;valid" style="rhombus;whiteSpace=wrap;html=1;fillColor=#FF9999;fontColor=#333333;strokeColor=#666666;rounded=1;" parent="v1ZU1jeRRtBtOZHkuNUI-89" vertex="1">
                    <mxGeometry x="89.93" y="154.89000000000004" width="80" height="71.29" as="geometry"/>
                </mxCell>
                <mxCell id="v1ZU1jeRRtBtOZHkuNUI-92" value="secret valid&lt;br&gt;&amp;amp;vm.is_verified&lt;div&gt;&amp;amp;!vm.account_id&lt;/div&gt;" style="rhombus;whiteSpace=wrap;html=1;fillColor=#FF9999;fontColor=#333333;strokeColor=#666666;rounded=1;" parent="v1ZU1jeRRtBtOZHkuNUI-89" vertex="1">
                    <mxGeometry x="61.93000000000001" y="4.18" width="135.07" height="114.82" as="geometry"/>
                </mxCell>
                <mxCell id="v1ZU1jeRRtBtOZHkuNUI-93" value="save the account &amp;amp; update account_id &amp;amp; set loginable to true&lt;div&gt;&amp;amp; linked_at to now&lt;/div&gt;" style="rounded=1;whiteSpace=wrap;html=1;fillColor=#5797D9;fontColor=#ffffff;strokeColor=#001DBC;" parent="v1ZU1jeRRtBtOZHkuNUI-89" vertex="1">
                    <mxGeometry x="5.93" y="232.18" width="124.07" height="62.82" as="geometry"/>
                </mxCell>
                <mxCell id="v1ZU1jeRRtBtOZHkuNUI-94" value="response with tokens" style="rounded=1;whiteSpace=wrap;html=1;fillColor=#5797D9;fontColor=#ffffff;strokeColor=#001DBC;" parent="v1ZU1jeRRtBtOZHkuNUI-89" vertex="1">
                    <mxGeometry x="140.26" y="270.8200000000001" width="120" height="50" as="geometry"/>
                </mxCell>
                <mxCell id="v1ZU1jeRRtBtOZHkuNUI-95" value="no" style="edgeStyle=orthogonalEdgeStyle;rounded=1;orthogonalLoop=1;jettySize=auto;html=1;entryX=0.5;entryY=1;entryDx=0;entryDy=0;exitX=1;exitY=0.5;exitDx=0;exitDy=0;" parent="v1ZU1jeRRtBtOZHkuNUI-89" source="v1ZU1jeRRtBtOZHkuNUI-91" target="v1ZU1jeRRtBtOZHkuNUI-90" edge="1">
                    <mxGeometry relative="1" as="geometry"/>
                </mxCell>
                <mxCell id="v1ZU1jeRRtBtOZHkuNUI-96" value="yes" style="edgeStyle=orthogonalEdgeStyle;rounded=1;orthogonalLoop=1;jettySize=auto;html=1;entryX=0.5;entryY=0;entryDx=0;entryDy=0;" parent="v1ZU1jeRRtBtOZHkuNUI-89" source="v1ZU1jeRRtBtOZHkuNUI-92" target="v1ZU1jeRRtBtOZHkuNUI-91" edge="1">
                    <mxGeometry relative="1" as="geometry"/>
                </mxCell>
                <mxCell id="v1ZU1jeRRtBtOZHkuNUI-97" value="no" style="edgeStyle=orthogonalEdgeStyle;rounded=1;orthogonalLoop=1;jettySize=auto;html=1;entryX=0.5;entryY=0;entryDx=0;entryDy=0;exitX=1;exitY=0.5;exitDx=0;exitDy=0;" parent="v1ZU1jeRRtBtOZHkuNUI-89" source="v1ZU1jeRRtBtOZHkuNUI-92" target="v1ZU1jeRRtBtOZHkuNUI-90" edge="1">
                    <mxGeometry relative="1" as="geometry"/>
                </mxCell>
                <mxCell id="v1ZU1jeRRtBtOZHkuNUI-98" value="yes" style="edgeStyle=orthogonalEdgeStyle;rounded=1;orthogonalLoop=1;jettySize=auto;html=1;entryX=0.5;entryY=0;entryDx=0;entryDy=0;exitX=0;exitY=0.5;exitDx=0;exitDy=0;fillColor=none;" parent="v1ZU1jeRRtBtOZHkuNUI-89" source="v1ZU1jeRRtBtOZHkuNUI-91" target="v1ZU1jeRRtBtOZHkuNUI-93" edge="1">
                    <mxGeometry relative="1" as="geometry"/>
                </mxCell>
                <mxCell id="v1ZU1jeRRtBtOZHkuNUI-99" style="edgeStyle=orthogonalEdgeStyle;rounded=1;orthogonalLoop=1;jettySize=auto;html=1;entryX=0.5;entryY=0;entryDx=0;entryDy=0;exitX=1;exitY=0.25;exitDx=0;exitDy=0;" parent="v1ZU1jeRRtBtOZHkuNUI-89" source="v1ZU1jeRRtBtOZHkuNUI-93" target="v1ZU1jeRRtBtOZHkuNUI-94" edge="1">
                    <mxGeometry relative="1" as="geometry"/>
                </mxCell>
                <mxCell id="ZFrwRgd-oDH84CEfDE7K-2" style="edgeStyle=orthogonalEdgeStyle;rounded=1;orthogonalLoop=1;jettySize=auto;html=1;entryX=0.5;entryY=0;entryDx=0;entryDy=0;exitX=0.25;exitY=1;exitDx=0;exitDy=0;" parent="v1ZU1jeRRtBtOZHkuNUI-102" source="v1ZU1jeRRtBtOZHkuNUI-27" target="_Lz6I93l5ru_T4zFbFvI-3" edge="1">
                    <mxGeometry relative="1" as="geometry">
                        <mxPoint x="529" y="1008" as="sourcePoint"/>
                    </mxGeometry>
                </mxCell>
                <mxCell id="WjPGS6aV06rKY_8aKDoy-3" style="edgeStyle=orthogonalEdgeStyle;rounded=1;orthogonalLoop=1;jettySize=auto;html=1;entryX=0.25;entryY=0;entryDx=0;entryDy=0;exitX=0.5;exitY=1;exitDx=0;exitDy=0;" parent="v1ZU1jeRRtBtOZHkuNUI-102" source="WjPGS6aV06rKY_8aKDoy-1" target="v1ZU1jeRRtBtOZHkuNUI-88" edge="1">
                    <mxGeometry relative="1" as="geometry"/>
                </mxCell>
                <mxCell id="v1ZU1jeRRtBtOZHkuNUI-108" style="edgeStyle=orthogonalEdgeStyle;rounded=1;orthogonalLoop=1;jettySize=auto;html=1;entryX=0.5;entryY=0;entryDx=0;entryDy=0;exitX=0.75;exitY=1;exitDx=0;exitDy=0;" parent="v1ZU1jeRRtBtOZHkuNUI-102" source="v1ZU1jeRRtBtOZHkuNUI-27" target="6JdxFMKGJGce-00UMF8G-5" edge="1">
                    <mxGeometry relative="1" as="geometry"/>
                </mxCell>
                <mxCell id="NCtWmSiecl5yez9ghkOs-57" style="edgeStyle=orthogonalEdgeStyle;rounded=1;orthogonalLoop=1;jettySize=auto;html=1;entryX=0.75;entryY=0;entryDx=0;entryDy=0;exitX=0.5;exitY=1;exitDx=0;exitDy=0;" parent="v1ZU1jeRRtBtOZHkuNUI-102" source="NCtWmSiecl5yez9ghkOs-46" target="v1ZU1jeRRtBtOZHkuNUI-88" edge="1">
                    <mxGeometry relative="1" as="geometry"/>
                </mxCell>
                <mxCell id="WjPGS6aV06rKY_8aKDoy-7" value="Signin (email, password)" style="rounded=1;whiteSpace=wrap;html=1;fontStyle=1;fontSize=15;" parent="v1ZU1jeRRtBtOZHkuNUI-102" vertex="1">
                    <mxGeometry x="1406" y="70" width="185" height="60" as="geometry"/>
                </mxCell>
                <mxCell id="WjPGS6aV06rKY_8aKDoy-10" value="server side process" style="swimlane;startSize=0;swimlaneFillColor=#47B347;fontStyle=0;align=left;fontSize=9;rounded=1;" parent="v1ZU1jeRRtBtOZHkuNUI-102" vertex="1">
                    <mxGeometry x="1319" y="167" width="360" height="200" as="geometry"/>
                </mxCell>
                <mxCell id="WjPGS6aV06rKY_8aKDoy-12" style="edgeStyle=orthogonalEdgeStyle;rounded=1;orthogonalLoop=1;jettySize=auto;html=1;entryX=0;entryY=0.5;entryDx=0;entryDy=0;" parent="WjPGS6aV06rKY_8aKDoy-10" source="_Lz6I93l5ru_T4zFbFvI-83" target="WjPGS6aV06rKY_8aKDoy-11" edge="1">
                    <mxGeometry relative="1" as="geometry"/>
                </mxCell>
                <mxCell id="_Lz6I93l5ru_T4zFbFvI-83" value="save refresh_token to the DB" style="rounded=1;whiteSpace=wrap;html=1;fillColor=#5797D9;fontColor=#ffffff;strokeColor=#001DBC;" parent="WjPGS6aV06rKY_8aKDoy-10" vertex="1">
                    <mxGeometry x="6" y="65.00000000000003" width="101.53" height="49.17" as="geometry"/>
                </mxCell>
                <mxCell id="_Lz6I93l5ru_T4zFbFvI-84" value="yes" style="edgeStyle=orthogonalEdgeStyle;rounded=1;orthogonalLoop=1;jettySize=auto;html=1;entryX=1;entryY=0.5;entryDx=0;entryDy=0;exitX=0;exitY=0.5;exitDx=0;exitDy=0;fillColor=none;" parent="WjPGS6aV06rKY_8aKDoy-10" source="_Lz6I93l5ru_T4zFbFvI-85" target="_Lz6I93l5ru_T4zFbFvI-83" edge="1">
                    <mxGeometry relative="1" as="geometry"/>
                </mxCell>
                <mxCell id="2" value="no" style="edgeStyle=orthogonalEdgeStyle;html=1;entryX=0.5;entryY=0;entryDx=0;entryDy=0;exitX=1;exitY=0.5;exitDx=0;exitDy=0;rounded=1;" parent="WjPGS6aV06rKY_8aKDoy-10" source="_Lz6I93l5ru_T4zFbFvI-85" target="_Lz6I93l5ru_T4zFbFvI-86" edge="1">
                    <mxGeometry relative="1" as="geometry"/>
                </mxCell>
                <mxCell id="_Lz6I93l5ru_T4zFbFvI-85" value="valid&lt;br&gt;email &amp;amp;&lt;br&gt;password ?" style="rhombus;whiteSpace=wrap;html=1;fillColor=#FF9999;fontColor=#333333;strokeColor=#666666;rounded=1;" parent="WjPGS6aV06rKY_8aKDoy-10" vertex="1">
                    <mxGeometry x="157" y="0.9200000000000728" width="100" height="110.65" as="geometry"/>
                </mxCell>
                <mxCell id="_Lz6I93l5ru_T4zFbFvI-86" value="response with error" style="rounded=1;whiteSpace=wrap;html=1;fillColor=#5797D9;fontColor=#ffffff;strokeColor=#001DBC;" parent="WjPGS6aV06rKY_8aKDoy-10" vertex="1">
                    <mxGeometry x="247" y="117.59000000000003" width="104.07" height="53.12" as="geometry"/>
                </mxCell>
                <mxCell id="WjPGS6aV06rKY_8aKDoy-11" value="response with tokens" style="rounded=1;whiteSpace=wrap;html=1;fillColor=#5797D9;fontColor=#ffffff;strokeColor=#001DBC;" parent="WjPGS6aV06rKY_8aKDoy-10" vertex="1">
                    <mxGeometry x="76" y="137" width="101.53" height="49.17" as="geometry"/>
                </mxCell>
                <mxCell id="_Lz6I93l5ru_T4zFbFvI-88" style="edgeStyle=orthogonalEdgeStyle;rounded=1;orthogonalLoop=1;jettySize=auto;html=1;entryX=0.5;entryY=0;entryDx=0;entryDy=0;exitX=0.5;exitY=1;exitDx=0;exitDy=0;" parent="v1ZU1jeRRtBtOZHkuNUI-102" source="WjPGS6aV06rKY_8aKDoy-7" target="WjPGS6aV06rKY_8aKDoy-10" edge="1">
                    <mxGeometry relative="1" as="geometry">
                        <mxPoint x="754" y="79.17000000000007" as="sourcePoint"/>
                        <mxPoint x="754" y="120" as="targetPoint"/>
                    </mxGeometry>
                </mxCell>
                <mxCell id="WjPGS6aV06rKY_8aKDoy-6" style="edgeStyle=orthogonalEdgeStyle;rounded=1;orthogonalLoop=1;jettySize=auto;html=1;entryX=0.5;entryY=0;entryDx=0;entryDy=0;" parent="v1ZU1jeRRtBtOZHkuNUI-102" edge="1">
                    <mxGeometry relative="1" as="geometry">
                        <mxPoint x="323.7096774193549" y="1632" as="sourcePoint"/>
                    </mxGeometry>
                </mxCell>
                <mxCell id="_Lz6I93l5ru_T4zFbFvI-3" value="Verify email (secret)" style="rounded=1;whiteSpace=wrap;html=1;fontStyle=1;" parent="v1ZU1jeRRtBtOZHkuNUI-102" vertex="1">
                    <mxGeometry x="224.82999999999998" y="1080" width="200" height="50" as="geometry"/>
                </mxCell>
                <mxCell id="NCtWmSiecl5yez9ghkOs-37" style="edgeStyle=orthogonalEdgeStyle;rounded=1;orthogonalLoop=1;jettySize=auto;html=1;entryX=0.25;entryY=0;entryDx=0;entryDy=0;exitX=0;exitY=0.5;exitDx=0;exitDy=0;" parent="v1ZU1jeRRtBtOZHkuNUI-102" source="ZFrwRgd-oDH84CEfDE7K-3" target="9fSp8sO44n7Tz8PfT3hy-3" edge="1">
                    <mxGeometry relative="1" as="geometry">
                        <Array as="points">
                            <mxPoint x="60" y="1451"/>
                            <mxPoint x="60" y="30"/>
                            <mxPoint x="222" y="30"/>
                        </Array>
                    </mxGeometry>
                </mxCell>
                <mxCell id="ZFrwRgd-oDH84CEfDE7K-3" value="server side process" style="swimlane;startSize=0;swimlaneFillColor=#47B347;fontStyle=0;align=left;fontSize=9;rounded=1;" parent="v1ZU1jeRRtBtOZHkuNUI-102" vertex="1">
                    <mxGeometry x="137.5" y="1273" width="375" height="356" as="geometry"/>
                </mxCell>
                <mxCell id="ZFrwRgd-oDH84CEfDE7K-4" value="is&lt;br&gt;secret&lt;br&gt;valid" style="rhombus;whiteSpace=wrap;html=1;fillColor=#FF9999;fontColor=#333333;strokeColor=#666666;rounded=1;" parent="ZFrwRgd-oDH84CEfDE7K-3" vertex="1">
                    <mxGeometry x="77.00000000000023" y="10" width="80" height="71.29" as="geometry"/>
                </mxCell>
                <mxCell id="ZFrwRgd-oDH84CEfDE7K-5" value="no" style="edgeStyle=orthogonalEdgeStyle;rounded=1;orthogonalLoop=1;jettySize=auto;html=1;entryX=0.5;entryY=0;entryDx=0;entryDy=0;exitX=1;exitY=0.5;exitDx=0;exitDy=0;" parent="ZFrwRgd-oDH84CEfDE7K-3" source="ZFrwRgd-oDH84CEfDE7K-4" target="ZFrwRgd-oDH84CEfDE7K-7" edge="1">
                    <mxGeometry relative="1" as="geometry">
                        <mxPoint x="182.0400000000002" y="88.70000000000005" as="targetPoint"/>
                    </mxGeometry>
                </mxCell>
                <mxCell id="ZFrwRgd-oDH84CEfDE7K-6" value="yes" style="edgeStyle=orthogonalEdgeStyle;rounded=1;orthogonalLoop=1;jettySize=auto;html=1;entryX=0.5;entryY=0;entryDx=0;entryDy=0;" parent="ZFrwRgd-oDH84CEfDE7K-3" source="ZFrwRgd-oDH84CEfDE7K-4" target="ZFrwRgd-oDH84CEfDE7K-8" edge="1">
                    <mxGeometry relative="1" as="geometry">
                        <mxPoint x="90.04000000000022" y="127.70000000000005" as="targetPoint"/>
                    </mxGeometry>
                </mxCell>
                <mxCell id="ZFrwRgd-oDH84CEfDE7K-7" value="response with HTML error page&amp;nbsp;" style="rounded=1;whiteSpace=wrap;html=1;fillColor=#5797D9;fontColor=#ffffff;strokeColor=#001DBC;" parent="ZFrwRgd-oDH84CEfDE7K-3" vertex="1">
                    <mxGeometry x="154.00000000000006" y="70" width="104.07" height="53.12" as="geometry"/>
                </mxCell>
                <mxCell id="WjPGS6aV06rKY_8aKDoy-2" style="edgeStyle=orthogonalEdgeStyle;rounded=1;orthogonalLoop=1;jettySize=auto;html=1;entryX=0.5;entryY=0;entryDx=0;entryDy=0;exitX=1;exitY=0.5;exitDx=0;exitDy=0;" parent="ZFrwRgd-oDH84CEfDE7K-3" source="ZFrwRgd-oDH84CEfDE7K-8" target="WjPGS6aV06rKY_8aKDoy-16" edge="1">
                    <mxGeometry relative="1" as="geometry"/>
                </mxCell>
                <mxCell id="ZFrwRgd-oDH84CEfDE7K-8" value="Set is_verified to true &amp;amp; set verified_at to now" style="rounded=1;whiteSpace=wrap;html=1;fillColor=#5797D9;fontColor=#ffffff;strokeColor=#001DBC;" parent="ZFrwRgd-oDH84CEfDE7K-3" vertex="1">
                    <mxGeometry x="40" y="136.12" width="127" height="43.88" as="geometry"/>
                </mxCell>
                <mxCell id="WjPGS6aV06rKY_8aKDoy-1" value="response with HTML success page - routes to account creation page- (secret)" style="rounded=1;whiteSpace=wrap;html=1;fillColor=#5797D9;fontColor=#ffffff;strokeColor=#001DBC;" parent="ZFrwRgd-oDH84CEfDE7K-3" vertex="1">
                    <mxGeometry x="182.5" y="288" width="183.07" height="59" as="geometry"/>
                </mxCell>
                <mxCell id="WjPGS6aV06rKY_8aKDoy-16" value="vm.account_id&lt;br&gt;== null" style="rhombus;whiteSpace=wrap;html=1;fillColor=#FF9999;fontColor=#333333;strokeColor=#666666;rounded=1;" parent="ZFrwRgd-oDH84CEfDE7K-3" vertex="1">
                    <mxGeometry x="132" y="190" width="104.73" height="80" as="geometry"/>
                </mxCell>
                <mxCell id="WjPGS6aV06rKY_8aKDoy-17" value="no" style="edgeStyle=orthogonalEdgeStyle;rounded=1;orthogonalLoop=1;jettySize=auto;html=1;exitX=0;exitY=0.5;exitDx=0;exitDy=0;" parent="ZFrwRgd-oDH84CEfDE7K-3" source="WjPGS6aV06rKY_8aKDoy-16" target="WjPGS6aV06rKY_8aKDoy-19" edge="1">
                    <mxGeometry relative="1" as="geometry">
                        <mxPoint x="197.30999999999997" y="251.69999999999993" as="targetPoint"/>
                    </mxGeometry>
                </mxCell>
                <mxCell id="WjPGS6aV06rKY_8aKDoy-18" value="yes" style="edgeStyle=orthogonalEdgeStyle;rounded=1;orthogonalLoop=1;jettySize=auto;html=1;entryX=0.5;entryY=0;entryDx=0;entryDy=0;exitX=1;exitY=0.5;exitDx=0;exitDy=0;" parent="ZFrwRgd-oDH84CEfDE7K-3" source="WjPGS6aV06rKY_8aKDoy-16" target="WjPGS6aV06rKY_8aKDoy-1" edge="1">
                    <mxGeometry relative="1" as="geometry">
                        <mxPoint x="105.30999999999999" y="290.6999999999998" as="targetPoint"/>
                    </mxGeometry>
                </mxCell>
                <mxCell id="WjPGS6aV06rKY_8aKDoy-19" value="response with simple HTML success page" style="rounded=1;whiteSpace=wrap;html=1;fillColor=#5797D9;fontColor=#ffffff;strokeColor=#001DBC;" parent="ZFrwRgd-oDH84CEfDE7K-3" vertex="1">
                    <mxGeometry x="12.5" y="292.5" width="165" height="50" as="geometry"/>
                </mxCell>
                <mxCell id="WjPGS6aV06rKY_8aKDoy-27" style="edgeStyle=orthogonalEdgeStyle;rounded=1;orthogonalLoop=1;jettySize=auto;html=1;entryX=0.5;entryY=0;entryDx=0;entryDy=0;" parent="v1ZU1jeRRtBtOZHkuNUI-102" source="WjPGS6aV06rKY_8aKDoy-15" target="l8-0bC7ax2X3n8z345mS-5" edge="1">
                    <mxGeometry relative="1" as="geometry"/>
                </mxCell>
                <mxCell id="WjPGS6aV06rKY_8aKDoy-15" value="Link email (email, token)" style="rounded=1;whiteSpace=wrap;html=1;fontStyle=1;fontSize=15;" parent="v1ZU1jeRRtBtOZHkuNUI-102" vertex="1">
                    <mxGeometry x="196" y="64.59000000000002" width="120" height="60" as="geometry"/>
                </mxCell>
                <mxCell id="l8-0bC7ax2X3n8z345mS-5" value="server side process" style="swimlane;startSize=0;swimlaneFillColor=#47B347;fontStyle=0;align=left;fontSize=9;rounded=1;" parent="v1ZU1jeRRtBtOZHkuNUI-102" vertex="1">
                    <mxGeometry x="146" y="143" width="220" height="173" as="geometry"/>
                </mxCell>
                <mxCell id="l8-0bC7ax2X3n8z345mS-6" value="max&lt;div&gt;linkable&lt;/div&gt;&lt;div&gt;emails&lt;/div&gt;&lt;div&gt;exceeded&lt;/div&gt;" style="rhombus;whiteSpace=wrap;html=1;fillColor=#FF9999;fontColor=#333333;strokeColor=#666666;rounded=1;" parent="l8-0bC7ax2X3n8z345mS-5" vertex="1">
                    <mxGeometry x="10" y="10" width="110" height="100" as="geometry"/>
                </mxCell>
                <mxCell id="l8-0bC7ax2X3n8z345mS-7" value="yes" style="edgeStyle=orthogonalEdgeStyle;rounded=1;orthogonalLoop=1;jettySize=auto;html=1;entryX=0.5;entryY=0;entryDx=0;entryDy=0;exitX=1;exitY=0.5;exitDx=0;exitDy=0;" parent="l8-0bC7ax2X3n8z345mS-5" source="l8-0bC7ax2X3n8z345mS-6" target="l8-0bC7ax2X3n8z345mS-14" edge="1">
                    <mxGeometry relative="1" as="geometry">
                        <mxPoint x="182.03999999999996" y="101.69999999999993" as="targetPoint"/>
                    </mxGeometry>
                </mxCell>
                <mxCell id="l8-0bC7ax2X3n8z345mS-14" value="response with error" style="rounded=1;whiteSpace=wrap;html=1;fillColor=#5797D9;fontColor=#ffffff;strokeColor=#001DBC;" parent="l8-0bC7ax2X3n8z345mS-5" vertex="1">
                    <mxGeometry x="101" y="105" width="104.07" height="53.12" as="geometry"/>
                </mxCell>
                <mxCell id="l8-0bC7ax2X3n8z345mS-8" value="no" style="edgeStyle=orthogonalEdgeStyle;rounded=1;orthogonalLoop=1;jettySize=auto;html=1;entryX=0.25;entryY=1;entryDx=0;entryDy=0;" parent="l8-0bC7ax2X3n8z345mS-5" edge="1">
                    <mxGeometry relative="1" as="geometry">
                        <mxPoint x="52" y="173" as="targetPoint"/>
                        <mxPoint x="62" y="109.99999999999989" as="sourcePoint"/>
                        <Array as="points">
                            <mxPoint x="62" y="130"/>
                            <mxPoint x="52" y="130"/>
                        </Array>
                    </mxGeometry>
                </mxCell>
                <mxCell id="v1ZU1jeRRtBtOZHkuNUI-12" value="Signup&amp;nbsp;&lt;br&gt;(email, password)" style="rounded=1;whiteSpace=wrap;html=1;fontStyle=1;fontSize=15;" parent="v1ZU1jeRRtBtOZHkuNUI-102" vertex="1">
                    <mxGeometry x="452" y="65" width="156" height="60" as="geometry"/>
                </mxCell>
                <mxCell id="v1ZU1jeRRtBtOZHkuNUI-67" value="" style="group;rounded=1;" parent="v1ZU1jeRRtBtOZHkuNUI-102" vertex="1" connectable="0">
                    <mxGeometry x="200" y="360" width="110" height="170" as="geometry"/>
                </mxCell>
                <mxCell id="v1ZU1jeRRtBtOZHkuNUI-70" value="&lt;font color=&quot;#000000&quot;&gt;{&lt;/font&gt;&lt;div&gt;&lt;font color=&quot;#000000&quot;&gt;email,&lt;br&gt;&lt;/font&gt;&lt;div&gt;&lt;font color=&quot;#000000&quot;&gt;token,&lt;br&gt;&lt;/font&gt;&lt;div&gt;&lt;font color=&quot;#000000&quot;&gt;type : 'e'&lt;/font&gt;&lt;/div&gt;&lt;div&gt;&lt;font color=&quot;#000000&quot;&gt;}&lt;/font&gt;&lt;/div&gt;&lt;/div&gt;&lt;/div&gt;" style="html=1;whiteSpace=wrap;fillColor=#EBEB5E;strokeColor=#82b366;rounded=1;" parent="v1ZU1jeRRtBtOZHkuNUI-67" vertex="1">
                    <mxGeometry y="64" width="110" height="76" as="geometry"/>
                </mxCell>
                <mxCell id="v1ZU1jeRRtBtOZHkuNUI-69" value="" style="endArrow=none;html=1;rounded=1;entryX=0.5;entryY=0;entryDx=0;entryDy=0;exitX=0.5;exitY=1;exitDx=0;exitDy=0;" parent="v1ZU1jeRRtBtOZHkuNUI-102" source="l8-0bC7ax2X3n8z345mS-5" target="v1ZU1jeRRtBtOZHkuNUI-70" edge="1">
                    <mxGeometry width="50" height="50" relative="1" as="geometry">
                        <mxPoint x="251" y="360" as="sourcePoint"/>
                        <mxPoint x="822" y="490" as="targetPoint"/>
                        <Array as="points"/>
                    </mxGeometry>
                </mxCell>
                <mxCell id="v1ZU1jeRRtBtOZHkuNUI-71" value="" style="group;rounded=1;" parent="v1ZU1jeRRtBtOZHkuNUI-102" vertex="1" connectable="0">
                    <mxGeometry x="475" y="170" width="110" height="170" as="geometry"/>
                </mxCell>
                <mxCell id="v1ZU1jeRRtBtOZHkuNUI-74" value="{&lt;div&gt;email,&lt;div&gt;&lt;div&gt;type : 'e'&lt;/div&gt;&lt;div&gt;}&lt;/div&gt;&lt;/div&gt;&lt;/div&gt;" style="html=1;whiteSpace=wrap;fillColor=#EBEB5E;strokeColor=#82b366;rounded=1;fontColor=#000000;" parent="v1ZU1jeRRtBtOZHkuNUI-71" vertex="1">
                    <mxGeometry y="64" width="110" height="76" as="geometry"/>
                </mxCell>
                <mxCell id="v1ZU1jeRRtBtOZHkuNUI-73" value="" style="endArrow=none;html=1;rounded=1;entryX=0.5;entryY=0;entryDx=0;entryDy=0;exitX=0.5;exitY=1;exitDx=0;exitDy=0;" parent="v1ZU1jeRRtBtOZHkuNUI-102" source="v1ZU1jeRRtBtOZHkuNUI-12" target="v1ZU1jeRRtBtOZHkuNUI-74" edge="1">
                    <mxGeometry width="50" height="50" relative="1" as="geometry">
                        <mxPoint x="530" y="170" as="sourcePoint"/>
                        <mxPoint x="1101" y="300" as="targetPoint"/>
                        <Array as="points"/>
                    </mxGeometry>
                </mxCell>
                <mxCell id="NCtWmSiecl5yez9ghkOs-33" value="" style="group;rounded=1;" parent="v1ZU1jeRRtBtOZHkuNUI-102" vertex="1" connectable="0">
                    <mxGeometry x="270" y="1104" width="110" height="170" as="geometry"/>
                </mxCell>
                <mxCell id="NCtWmSiecl5yez9ghkOs-35" value="{&lt;div&gt;secret_id,&lt;/div&gt;&lt;div&gt;secret&lt;/div&gt;&lt;div&gt;}&lt;/div&gt;" style="html=1;whiteSpace=wrap;fillColor=#EBEB5E;strokeColor=#82b366;rounded=1;fontColor=#000000;" parent="NCtWmSiecl5yez9ghkOs-33" vertex="1">
                    <mxGeometry y="67" width="110" height="66" as="geometry"/>
                </mxCell>
                <mxCell id="NCtWmSiecl5yez9ghkOs-36" value="" style="endArrow=none;html=1;rounded=1;entryX=0.5;entryY=0;entryDx=0;entryDy=0;exitX=0.5;exitY=1;exitDx=0;exitDy=0;" parent="v1ZU1jeRRtBtOZHkuNUI-102" source="_Lz6I93l5ru_T4zFbFvI-3" target="NCtWmSiecl5yez9ghkOs-35" edge="1">
                    <mxGeometry width="50" height="50" relative="1" as="geometry">
                        <mxPoint x="325" y="1131" as="sourcePoint"/>
                        <mxPoint x="896" y="1261" as="targetPoint"/>
                        <Array as="points"/>
                    </mxGeometry>
                </mxCell>
                <mxCell id="NCtWmSiecl5yez9ghkOs-34" style="edgeStyle=orthogonalEdgeStyle;rounded=1;orthogonalLoop=1;jettySize=auto;html=1;entryX=0.5;entryY=0;entryDx=0;entryDy=0;" parent="v1ZU1jeRRtBtOZHkuNUI-102" source="NCtWmSiecl5yez9ghkOs-35" target="ZFrwRgd-oDH84CEfDE7K-3" edge="1">
                    <mxGeometry relative="1" as="geometry">
                        <mxPoint x="325" y="1301" as="targetPoint"/>
                    </mxGeometry>
                </mxCell>
                <mxCell id="v1ZU1jeRRtBtOZHkuNUI-27" value="now verification_method logic" style="swimlane;startSize=0;swimlaneFillColor=#47B347;fontStyle=1;align=left;fontSize=14;labelBackgroundColor=#FFFFFF;labelBorderColor=#FFFFFF;whiteSpace=wrap;container=0;fontColor=#000000;rounded=1;" parent="v1ZU1jeRRtBtOZHkuNUI-102" vertex="1">
                    <mxGeometry x="429" y="439.85" width="400" height="562.15" as="geometry"/>
                </mxCell>
                <mxCell id="v1ZU1jeRRtBtOZHkuNUI-46" value="&lt;span style=&quot;background-color: rgb(76, 0, 153);&quot;&gt;&lt;font color=&quot;#ffffff&quot;&gt;validate identifier&lt;/font&gt;&lt;/span&gt;" style="rhombus;whiteSpace=wrap;html=1;fillColor=#FF9999;fontColor=#333333;strokeColor=#666666;rounded=1;" parent="v1ZU1jeRRtBtOZHkuNUI-102" vertex="1">
                    <mxGeometry x="588.99" y="450.85" width="80" height="71.29" as="geometry"/>
                </mxCell>
                <mxCell id="v1ZU1jeRRtBtOZHkuNUI-47" value="response with error" style="rounded=1;whiteSpace=wrap;html=1;fillColor=#5797D9;fontColor=#ffffff;strokeColor=#001DBC;" parent="v1ZU1jeRRtBtOZHkuNUI-102" vertex="1">
                    <mxGeometry x="687.99" y="518.14" width="104.07" height="53.12" as="geometry"/>
                </mxCell>
                <mxCell id="v1ZU1jeRRtBtOZHkuNUI-48" value="&lt;div&gt;vm&lt;/div&gt;&lt;div&gt;&amp;amp;&lt;/div&gt;&lt;div&gt;vm.is_verified&lt;/div&gt;" style="rhombus;whiteSpace=wrap;html=1;fillColor=#FF9999;fontColor=#333333;strokeColor=#666666;rounded=1;" parent="v1ZU1jeRRtBtOZHkuNUI-102" vertex="1">
                    <mxGeometry x="559.97" y="558.85" width="139" height="98" as="geometry"/>
                </mxCell>
                <mxCell id="v1ZU1jeRRtBtOZHkuNUI-49" value="let vm= an unverified nonloginable 'e' type verification method&amp;nbsp;" style="rounded=1;whiteSpace=wrap;html=1;fillColor=#5797D9;fontColor=#ffffff;strokeColor=#001DBC;" parent="v1ZU1jeRRtBtOZHkuNUI-102" vertex="1">
                    <mxGeometry x="445.97" y="640.85" width="122.04" height="53" as="geometry"/>
                </mxCell>
                <mxCell id="v1ZU1jeRRtBtOZHkuNUI-50" style="edgeStyle=orthogonalEdgeStyle;rounded=1;orthogonalLoop=1;jettySize=auto;html=1;entryX=0;entryY=0.5;entryDx=0;entryDy=0;exitX=0.5;exitY=1;exitDx=0;exitDy=0;" parent="v1ZU1jeRRtBtOZHkuNUI-102" source="v1ZU1jeRRtBtOZHkuNUI-51" target="v1ZU1jeRRtBtOZHkuNUI-61" edge="1">
                    <mxGeometry relative="1" as="geometry"/>
                </mxCell>
                <mxCell id="v1ZU1jeRRtBtOZHkuNUI-51" value="set hashed_password&lt;div&gt;to hash(password)&lt;/div&gt;" style="rounded=1;whiteSpace=wrap;html=1;fillColor=#5797D9;fontColor=#ffffff;strokeColor=#001DBC;" parent="v1ZU1jeRRtBtOZHkuNUI-102" vertex="1">
                    <mxGeometry x="446.97" y="871.85" width="126" height="49.17" as="geometry"/>
                </mxCell>
                <mxCell id="v1ZU1jeRRtBtOZHkuNUI-52" value="no" style="edgeStyle=orthogonalEdgeStyle;rounded=1;orthogonalLoop=1;jettySize=auto;html=1;entryX=0.5;entryY=0;entryDx=0;entryDy=0;exitX=1;exitY=0.5;exitDx=0;exitDy=0;" parent="v1ZU1jeRRtBtOZHkuNUI-102" source="v1ZU1jeRRtBtOZHkuNUI-46" target="v1ZU1jeRRtBtOZHkuNUI-47" edge="1">
                    <mxGeometry relative="1" as="geometry"/>
                </mxCell>
                <mxCell id="v1ZU1jeRRtBtOZHkuNUI-53" value="yes" style="edgeStyle=orthogonalEdgeStyle;rounded=1;orthogonalLoop=1;jettySize=auto;html=1;" parent="v1ZU1jeRRtBtOZHkuNUI-102" source="v1ZU1jeRRtBtOZHkuNUI-46" target="v1ZU1jeRRtBtOZHkuNUI-48" edge="1">
                    <mxGeometry relative="1" as="geometry"/>
                </mxCell>
                <mxCell id="v1ZU1jeRRtBtOZHkuNUI-54" value="yes" style="edgeStyle=orthogonalEdgeStyle;rounded=1;orthogonalLoop=1;jettySize=auto;html=1;entryX=0.5;entryY=1;entryDx=0;entryDy=0;exitX=1;exitY=0.5;exitDx=0;exitDy=0;" parent="v1ZU1jeRRtBtOZHkuNUI-102" source="v1ZU1jeRRtBtOZHkuNUI-48" target="v1ZU1jeRRtBtOZHkuNUI-47" edge="1">
                    <mxGeometry relative="1" as="geometry"/>
                </mxCell>
                <mxCell id="v1ZU1jeRRtBtOZHkuNUI-55" value="no" style="edgeStyle=orthogonalEdgeStyle;rounded=1;orthogonalLoop=1;jettySize=auto;html=1;entryX=0.5;entryY=0;entryDx=0;entryDy=0;exitX=0;exitY=0.5;exitDx=0;exitDy=0;" parent="v1ZU1jeRRtBtOZHkuNUI-102" source="v1ZU1jeRRtBtOZHkuNUI-48" target="v1ZU1jeRRtBtOZHkuNUI-49" edge="1">
                    <mxGeometry relative="1" as="geometry"/>
                </mxCell>
                <mxCell id="v1ZU1jeRRtBtOZHkuNUI-56" style="edgeStyle=orthogonalEdgeStyle;rounded=1;orthogonalLoop=1;jettySize=auto;html=1;entryX=0.5;entryY=0;entryDx=0;entryDy=0;" parent="v1ZU1jeRRtBtOZHkuNUI-102" source="v1ZU1jeRRtBtOZHkuNUI-49" target="v1ZU1jeRRtBtOZHkuNUI-58" edge="1">
                    <mxGeometry relative="1" as="geometry"/>
                </mxCell>
                <mxCell id="v1ZU1jeRRtBtOZHkuNUI-57" value="yes" style="edgeStyle=orthogonalEdgeStyle;rounded=1;orthogonalLoop=1;jettySize=auto;html=1;exitX=1;exitY=0.5;exitDx=0;exitDy=0;entryX=0.5;entryY=0;entryDx=0;entryDy=0;" parent="v1ZU1jeRRtBtOZHkuNUI-102" source="v1ZU1jeRRtBtOZHkuNUI-58" target="v1ZU1jeRRtBtOZHkuNUI-60" edge="1">
                    <mxGeometry relative="1" as="geometry"/>
                </mxCell>
                <mxCell id="v1ZU1jeRRtBtOZHkuNUI-58" value="call&lt;br&gt;aouthorized" style="rhombus;whiteSpace=wrap;html=1;fillColor=#FF9999;fontColor=#333333;strokeColor=#666666;rounded=1;" parent="v1ZU1jeRRtBtOZHkuNUI-102" vertex="1">
                    <mxGeometry x="591.01" y="688.85" width="94" height="89" as="geometry"/>
                </mxCell>
                <mxCell id="v1ZU1jeRRtBtOZHkuNUI-59" style="edgeStyle=orthogonalEdgeStyle;rounded=1;orthogonalLoop=1;jettySize=auto;html=1;entryX=1;entryY=0.5;entryDx=0;entryDy=0;exitX=0.5;exitY=1;exitDx=0;exitDy=0;" parent="v1ZU1jeRRtBtOZHkuNUI-102" source="v1ZU1jeRRtBtOZHkuNUI-60" target="v1ZU1jeRRtBtOZHkuNUI-61" edge="1">
                    <mxGeometry relative="1" as="geometry"/>
                </mxCell>
                <mxCell id="v1ZU1jeRRtBtOZHkuNUI-60" value="set account_id to id" style="rounded=1;whiteSpace=wrap;html=1;fillColor=#5797D9;fontColor=#ffffff;strokeColor=#001DBC;" parent="v1ZU1jeRRtBtOZHkuNUI-102" vertex="1">
                    <mxGeometry x="707.97" y="765.85" width="104.07" height="53.12" as="geometry"/>
                </mxCell>
                <mxCell id="v1ZU1jeRRtBtOZHkuNUI-61" value="Upsert vm in DB &amp;amp;&lt;div&gt;create a verification secret &amp;amp;&lt;br&gt;&lt;div&gt;&lt;span style=&quot;background-color: rgb(76, 0, 153);&quot;&gt;notify identifier&amp;nbsp;&lt;/span&gt;&lt;/div&gt;&lt;div&gt;&lt;span style=&quot;background-color: rgb(76, 0, 153);&quot;&gt;(email, 'e',{secret_id,secrit})&lt;/span&gt;&lt;br&gt;&lt;/div&gt;&lt;/div&gt;" style="rounded=1;whiteSpace=wrap;html=1;fillColor=#5797D9;fontColor=#ffffff;strokeColor=#001DBC;" parent="v1ZU1jeRRtBtOZHkuNUI-102" vertex="1">
                    <mxGeometry x="552.01" y="925.85" width="176.96" height="68" as="geometry"/>
                </mxCell>
                <mxCell id="v1ZU1jeRRtBtOZHkuNUI-62" value="type == 'e'" style="rhombus;whiteSpace=wrap;html=1;fillColor=#FF9999;fontColor=#333333;strokeColor=#666666;rounded=1;" parent="v1ZU1jeRRtBtOZHkuNUI-102" vertex="1">
                    <mxGeometry x="470.97" y="755.68" width="80" height="71.29" as="geometry"/>
                </mxCell>
                <mxCell id="v1ZU1jeRRtBtOZHkuNUI-63" value="no" style="edgeStyle=orthogonalEdgeStyle;rounded=1;orthogonalLoop=1;jettySize=auto;html=1;entryX=0.5;entryY=0;entryDx=0;entryDy=0;exitX=0;exitY=0.5;exitDx=0;exitDy=0;" parent="v1ZU1jeRRtBtOZHkuNUI-102" source="v1ZU1jeRRtBtOZHkuNUI-58" target="v1ZU1jeRRtBtOZHkuNUI-62" edge="1">
                    <mxGeometry relative="1" as="geometry"/>
                </mxCell>
                <mxCell id="v1ZU1jeRRtBtOZHkuNUI-64" value="yes" style="edgeStyle=orthogonalEdgeStyle;rounded=1;orthogonalLoop=1;jettySize=auto;html=1;entryX=0.5;entryY=0;entryDx=0;entryDy=0;" parent="v1ZU1jeRRtBtOZHkuNUI-102" source="v1ZU1jeRRtBtOZHkuNUI-62" target="v1ZU1jeRRtBtOZHkuNUI-51" edge="1">
                    <mxGeometry relative="1" as="geometry">
                        <mxPoint x="280.01" y="817.55" as="targetPoint"/>
                    </mxGeometry>
                </mxCell>
                <mxCell id="v1ZU1jeRRtBtOZHkuNUI-65" value="no" style="edgeStyle=orthogonalEdgeStyle;rounded=1;orthogonalLoop=1;jettySize=auto;html=1;entryX=0.5;entryY=0;entryDx=0;entryDy=0;exitX=1;exitY=0.5;exitDx=0;exitDy=0;" parent="v1ZU1jeRRtBtOZHkuNUI-102" source="v1ZU1jeRRtBtOZHkuNUI-62" target="v1ZU1jeRRtBtOZHkuNUI-61" edge="1">
                    <mxGeometry relative="1" as="geometry">
                        <mxPoint x="372.01" y="778.55" as="targetPoint"/>
                    </mxGeometry>
                </mxCell>
                <mxCell id="_Lz6I93l5ru_T4zFbFvI-14" value="color map" style="shape=table;startSize=30;container=1;collapsible=0;childLayout=tableLayout;strokeColor=default;fontSize=16;rounded=1;" parent="1" vertex="1">
                    <mxGeometry x="10" y="10" width="272" height="150" as="geometry"/>
                </mxCell>
                <mxCell id="_Lz6I93l5ru_T4zFbFvI-15" value="" style="shape=tableRow;horizontal=0;startSize=0;swimlaneHead=0;swimlaneBody=0;strokeColor=inherit;top=0;left=0;bottom=0;right=0;collapsible=0;dropTarget=0;fillColor=none;points=[[0,0.5],[1,0.5]];portConstraint=eastwest;fontSize=16;rounded=1;" parent="_Lz6I93l5ru_T4zFbFvI-14" vertex="1">
                    <mxGeometry y="30" width="272" height="40" as="geometry"/>
                </mxCell>
                <mxCell id="_Lz6I93l5ru_T4zFbFvI-16" value="API call" style="shape=partialRectangle;html=1;whiteSpace=wrap;connectable=0;strokeColor=inherit;overflow=hidden;fillColor=none;top=0;left=0;bottom=0;right=0;pointerEvents=1;fontSize=16;rounded=1;" parent="_Lz6I93l5ru_T4zFbFvI-15" vertex="1">
                    <mxGeometry width="140" height="40" as="geometry">
                        <mxRectangle width="140" height="40" as="alternateBounds"/>
                    </mxGeometry>
                </mxCell>
                <mxCell id="_Lz6I93l5ru_T4zFbFvI-17" value="" style="shape=partialRectangle;html=1;whiteSpace=wrap;connectable=0;overflow=hidden;top=0;left=0;bottom=0;right=0;pointerEvents=1;fontSize=16;rounded=1;" parent="_Lz6I93l5ru_T4zFbFvI-15" vertex="1">
                    <mxGeometry x="140" width="132" height="40" as="geometry">
                        <mxRectangle width="132" height="40" as="alternateBounds"/>
                    </mxGeometry>
                </mxCell>
                <mxCell id="_Lz6I93l5ru_T4zFbFvI-19" value="" style="shape=tableRow;horizontal=0;startSize=0;swimlaneHead=0;swimlaneBody=0;strokeColor=inherit;top=0;left=0;bottom=0;right=0;collapsible=0;dropTarget=0;fillColor=none;points=[[0,0.5],[1,0.5]];portConstraint=eastwest;fontSize=16;rounded=1;" parent="_Lz6I93l5ru_T4zFbFvI-14" vertex="1">
                    <mxGeometry y="70" width="272" height="40" as="geometry"/>
                </mxCell>
                <mxCell id="_Lz6I93l5ru_T4zFbFvI-20" value="server side logic" style="shape=partialRectangle;html=1;whiteSpace=wrap;connectable=0;strokeColor=inherit;overflow=hidden;fillColor=none;top=0;left=0;bottom=0;right=0;pointerEvents=1;fontSize=16;rounded=1;" parent="_Lz6I93l5ru_T4zFbFvI-19" vertex="1">
                    <mxGeometry width="140" height="40" as="geometry">
                        <mxRectangle width="140" height="40" as="alternateBounds"/>
                    </mxGeometry>
                </mxCell>
                <mxCell id="_Lz6I93l5ru_T4zFbFvI-21" value="" style="shape=partialRectangle;html=1;whiteSpace=wrap;connectable=0;strokeColor=#3700CC;overflow=hidden;fillColor=#47B347;top=0;left=0;bottom=0;right=0;pointerEvents=1;fontSize=16;fontColor=#ffffff;rounded=1;" parent="_Lz6I93l5ru_T4zFbFvI-19" vertex="1">
                    <mxGeometry x="140" width="132" height="40" as="geometry">
                        <mxRectangle width="132" height="40" as="alternateBounds"/>
                    </mxGeometry>
                </mxCell>
                <mxCell id="_Lz6I93l5ru_T4zFbFvI-23" value="" style="shape=tableRow;horizontal=0;startSize=0;swimlaneHead=0;swimlaneBody=0;strokeColor=inherit;top=0;left=0;bottom=0;right=0;collapsible=0;dropTarget=0;fillColor=none;points=[[0,0.5],[1,0.5]];portConstraint=eastwest;fontSize=16;rounded=1;" parent="_Lz6I93l5ru_T4zFbFvI-14" vertex="1">
                    <mxGeometry y="110" width="272" height="40" as="geometry"/>
                </mxCell>
                <mxCell id="_Lz6I93l5ru_T4zFbFvI-24" value="server Action" style="shape=partialRectangle;html=1;whiteSpace=wrap;connectable=0;strokeColor=inherit;overflow=hidden;fillColor=none;top=0;left=0;bottom=0;right=0;pointerEvents=1;fontSize=16;rounded=1;" parent="_Lz6I93l5ru_T4zFbFvI-23" vertex="1">
                    <mxGeometry width="140" height="40" as="geometry">
                        <mxRectangle width="140" height="40" as="alternateBounds"/>
                    </mxGeometry>
                </mxCell>
                <mxCell id="_Lz6I93l5ru_T4zFbFvI-25" value="" style="shape=partialRectangle;html=1;whiteSpace=wrap;connectable=0;strokeColor=#001DBC;overflow=hidden;fillColor=#5797D9;top=0;left=0;bottom=0;right=0;pointerEvents=1;fontSize=16;fontColor=#ffffff;rounded=1;" parent="_Lz6I93l5ru_T4zFbFvI-23" vertex="1">
                    <mxGeometry x="140" width="132" height="40" as="geometry">
                        <mxRectangle width="132" height="40" as="alternateBounds"/>
                    </mxGeometry>
                </mxCell>
                <mxCell id="l8-0bC7ax2X3n8z345mS-1" value="server side process" style="swimlane;startSize=0;swimlaneFillColor=#47B347;fontStyle=0;align=left;fontSize=9;rounded=1;" parent="1" vertex="1">
                    <mxGeometry x="1750" y="387" width="309" height="330" as="geometry"/>
                </mxCell>
                <mxCell id="2UZ3ieq_R4y29duBAabU-2" value="no" style="edgeStyle=orthogonalEdgeStyle;rounded=1;orthogonalLoop=1;jettySize=auto;html=1;entryX=0;entryY=0.5;entryDx=0;entryDy=0;exitX=0.5;exitY=1;exitDx=0;exitDy=0;" parent="l8-0bC7ax2X3n8z345mS-1" source="l8-0bC7ax2X3n8z345mS-2" target="2UZ3ieq_R4y29duBAabU-1" edge="1">
                    <mxGeometry relative="1" as="geometry"/>
                </mxCell>
                <mxCell id="l8-0bC7ax2X3n8z345mS-2" value="is&lt;div&gt;the only&lt;div&gt;loginabl&lt;/div&gt;&lt;/div&gt;&lt;div&gt;VM&lt;/div&gt;" style="rhombus;whiteSpace=wrap;html=1;fillColor=#FF9999;fontColor=#333333;strokeColor=#666666;rounded=1;" parent="l8-0bC7ax2X3n8z345mS-1" vertex="1">
                    <mxGeometry x="13" y="136" width="95" height="80" as="geometry"/>
                </mxCell>
                <mxCell id="l8-0bC7ax2X3n8z345mS-3" value="yes" style="edgeStyle=orthogonalEdgeStyle;rounded=1;orthogonalLoop=1;jettySize=auto;html=1;entryX=0.5;entryY=1;entryDx=0;entryDy=0;exitX=1;exitY=0.5;exitDx=0;exitDy=0;" parent="l8-0bC7ax2X3n8z345mS-1" source="l8-0bC7ax2X3n8z345mS-2" target="VdWX-pFILzelIidHuEOV-1" edge="1">
                    <mxGeometry relative="1" as="geometry">
                        <mxPoint x="237.03999999999996" y="91.69999999999993" as="targetPoint"/>
                    </mxGeometry>
                </mxCell>
                <mxCell id="VdWX-pFILzelIidHuEOV-1" value="response with error" style="rounded=1;whiteSpace=wrap;html=1;fillColor=#5797D9;fontColor=#ffffff;strokeColor=#001DBC;" parent="l8-0bC7ax2X3n8z345mS-1" vertex="1">
                    <mxGeometry x="196" y="102" width="104.07" height="53.12" as="geometry"/>
                </mxCell>
                <mxCell id="rMuXZbr-IJ7fJMd5YltB-1" value="is&amp;nbsp;&lt;span style=&quot;background-color: initial;&quot;&gt;valid&amp;nbsp;&lt;/span&gt;&lt;span style=&quot;background-color: initial;&quot;&gt;VM&lt;/span&gt;&lt;div&gt;&lt;span style=&quot;background-color: initial;&quot;&gt;&amp;amp;&lt;/span&gt;&lt;/div&gt;&lt;div&gt;&lt;span style=&quot;background-color: initial;&quot;&gt;is linked to&amp;nbsp;&lt;/span&gt;&lt;span style=&quot;background-color: initial;&quot;&gt;me&lt;/span&gt;&lt;/div&gt;" style="rhombus;whiteSpace=wrap;html=1;fillColor=#FF9999;fontColor=#333333;strokeColor=#666666;rounded=1;" parent="l8-0bC7ax2X3n8z345mS-1" vertex="1">
                    <mxGeometry x="84" y="5" width="140" height="114" as="geometry"/>
                </mxCell>
                <mxCell id="rMuXZbr-IJ7fJMd5YltB-2" value="no" style="edgeStyle=orthogonalEdgeStyle;rounded=1;orthogonalLoop=1;jettySize=auto;html=1;entryX=0.5;entryY=0;entryDx=0;entryDy=0;exitX=1;exitY=0.5;exitDx=0;exitDy=0;" parent="l8-0bC7ax2X3n8z345mS-1" source="rMuXZbr-IJ7fJMd5YltB-1" target="VdWX-pFILzelIidHuEOV-1" edge="1">
                    <mxGeometry relative="1" as="geometry">
                        <mxPoint x="27.039999999999964" y="-78.30000000000007" as="targetPoint"/>
                    </mxGeometry>
                </mxCell>
                <mxCell id="rMuXZbr-IJ7fJMd5YltB-3" value="yes" style="edgeStyle=orthogonalEdgeStyle;rounded=1;orthogonalLoop=1;jettySize=auto;html=1;entryX=0.5;entryY=0;entryDx=0;entryDy=0;exitX=0;exitY=0.5;exitDx=0;exitDy=0;" parent="l8-0bC7ax2X3n8z345mS-1" source="rMuXZbr-IJ7fJMd5YltB-1" target="l8-0bC7ax2X3n8z345mS-2" edge="1">
                    <mxGeometry relative="1" as="geometry">
                        <mxPoint x="-64.96000000000004" y="-39.30000000000007" as="targetPoint"/>
                    </mxGeometry>
                </mxCell>
                <mxCell id="2UZ3ieq_R4y29duBAabU-6" style="edgeStyle=orthogonalEdgeStyle;rounded=1;orthogonalLoop=1;jettySize=auto;html=1;entryX=1;entryY=0.5;entryDx=0;entryDy=0;exitX=0.5;exitY=1;exitDx=0;exitDy=0;" parent="l8-0bC7ax2X3n8z345mS-1" source="2UZ3ieq_R4y29duBAabU-1" target="2UZ3ieq_R4y29duBAabU-5" edge="1">
                    <mxGeometry relative="1" as="geometry"/>
                </mxCell>
                <mxCell id="2UZ3ieq_R4y29duBAabU-1" value="notify the VM&lt;div&gt;via email or SMS&lt;/div&gt;" style="rounded=1;whiteSpace=wrap;html=1;fillColor=#5797D9;fontColor=#ffffff;strokeColor=#001DBC;" parent="l8-0bC7ax2X3n8z345mS-1" vertex="1">
                    <mxGeometry x="160" y="209" width="112.07" height="53.12" as="geometry"/>
                </mxCell>
                <mxCell id="2UZ3ieq_R4y29duBAabU-5" value="delete the verification method" style="rounded=1;whiteSpace=wrap;html=1;fillColor=#5797D9;fontColor=#ffffff;strokeColor=#001DBC;" parent="l8-0bC7ax2X3n8z345mS-1" vertex="1">
                    <mxGeometry x="29" y="267" width="112.07" height="53.12" as="geometry"/>
                </mxCell>
                <mxCell id="2UZ3ieq_R4y29duBAabU-4" style="edgeStyle=orthogonalEdgeStyle;rounded=1;orthogonalLoop=1;jettySize=auto;html=1;entryX=0.5;entryY=0;entryDx=0;entryDy=0;" parent="1" source="2UZ3ieq_R4y29duBAabU-3" target="l8-0bC7ax2X3n8z345mS-1" edge="1">
                    <mxGeometry relative="1" as="geometry"/>
                </mxCell>
                <mxCell id="2UZ3ieq_R4y29duBAabU-3" value="Unlink Verification method (verificationMethod_id, token)" style="rounded=1;whiteSpace=wrap;html=1;fontStyle=1;fontSize=15;" parent="1" vertex="1">
                    <mxGeometry x="1789" y="290" width="231" height="60" as="geometry"/>
                </mxCell>
                <mxCell id="EcJO1QFU08IKhNkOo2_e-11" style="edgeStyle=none;html=1;entryX=0.5;entryY=0;entryDx=0;entryDy=0;" parent="1" source="6JdxFMKGJGce-00UMF8G-2" target="3" edge="1">
                    <mxGeometry relative="1" as="geometry"/>
                </mxCell>
                <mxCell id="6JdxFMKGJGce-00UMF8G-2" value="revoke Unlinking&lt;br&gt;(verification_secret)" style="rounded=1;whiteSpace=wrap;html=1;fontStyle=1;fontSize=15;" parent="1" vertex="1">
                    <mxGeometry x="2203" y="290" width="194" height="60" as="geometry"/>
                </mxCell>
                <mxCell id="v1ZU1jeRRtBtOZHkuNUI-10" value="" style="text;whiteSpace=wrap;html=1;rounded=1;" parent="1" vertex="1">
                    <mxGeometry x="260" y="280" width="60" height="50" as="geometry"/>
                </mxCell>
                <mxCell id="_U7U6Ivq2oCK15KBNmji-11" style="edgeStyle=none;html=1;entryX=0.5;entryY=0;entryDx=0;entryDy=0;" edge="1" parent="1" source="NCtWmSiecl5yez9ghkOs-61" target="_U7U6Ivq2oCK15KBNmji-10">
                    <mxGeometry relative="1" as="geometry"/>
                </mxCell>
                <mxCell id="NCtWmSiecl5yez9ghkOs-61" value="Deactivate Account Request &lt;br&gt;(verificationMethod_id,&amp;nbsp;token)" style="rounded=1;whiteSpace=wrap;html=1;fontStyle=1;fontSize=15;" parent="1" vertex="1">
                    <mxGeometry x="2600" y="290" width="250" height="60" as="geometry"/>
                </mxCell>
                <mxCell id="_U7U6Ivq2oCK15KBNmji-22" style="edgeStyle=none;html=1;entryX=0.5;entryY=0;entryDx=0;entryDy=0;" edge="1" parent="1" source="NCtWmSiecl5yez9ghkOs-62" target="_U7U6Ivq2oCK15KBNmji-21">
                    <mxGeometry relative="1" as="geometry"/>
                </mxCell>
                <mxCell id="NCtWmSiecl5yez9ghkOs-62" value="Deactivate Account&lt;br&gt;( verification_secret )" style="rounded=1;whiteSpace=wrap;html=1;fontStyle=1;fontSize=15;" parent="1" vertex="1">
                    <mxGeometry x="2629.5" y="670" width="195" height="67" as="geometry"/>
                </mxCell>
                <mxCell id="NCtWmSiecl5yez9ghkOs-63" value="Edit account Data&lt;br&gt;( account_data, token )" style="rounded=1;whiteSpace=wrap;html=1;fontStyle=1;fontSize=15;" parent="1" vertex="1">
                    <mxGeometry x="3060" y="290" width="190" height="60" as="geometry"/>
                </mxCell>
                <mxCell id="NCtWmSiecl5yez9ghkOs-64" value="Forgote Password" style="rounded=1;whiteSpace=wrap;html=1;fontStyle=1;fontSize=15;" parent="1" vertex="1">
                    <mxGeometry x="3600" y="300" width="120" height="60" as="geometry"/>
                </mxCell>
                <mxCell id="NCtWmSiecl5yez9ghkOs-65" value="Update Password request" style="rounded=1;whiteSpace=wrap;html=1;fontStyle=1;fontSize=15;" parent="1" vertex="1">
                    <mxGeometry x="3830" y="300" width="120" height="60" as="geometry"/>
                </mxCell>
                <mxCell id="NCtWmSiecl5yez9ghkOs-66" value="Update Password" style="rounded=1;whiteSpace=wrap;html=1;fontStyle=1;fontSize=15;" parent="1" vertex="1">
                    <mxGeometry x="3720" y="420" width="120" height="60" as="geometry"/>
                </mxCell>
                <mxCell id="NCtWmSiecl5yez9ghkOs-67" value="Refresh Token" style="rounded=1;whiteSpace=wrap;html=1;fontStyle=1;fontSize=15;" parent="1" vertex="1">
                    <mxGeometry x="4272" y="300" width="120" height="60" as="geometry"/>
                </mxCell>
                <mxCell id="NCtWmSiecl5yez9ghkOs-68" value="Promote Account" style="rounded=1;whiteSpace=wrap;html=1;fontStyle=1;fontSize=15;" parent="1" vertex="1">
                    <mxGeometry x="4070" y="300" width="120" height="60" as="geometry"/>
                </mxCell>
                <mxCell id="NCtWmSiecl5yez9ghkOs-69" value="Get users" style="rounded=1;whiteSpace=wrap;html=1;fontStyle=1;fontSize=15;" parent="1" vertex="1">
                    <mxGeometry x="4450" y="300" width="120" height="60" as="geometry"/>
                </mxCell>
                <mxCell id="3" value="server side process" style="swimlane;startSize=0;swimlaneFillColor=#47B347;fontStyle=0;align=left;fontSize=9;" parent="1" vertex="1">
                    <mxGeometry x="2139" y="387" width="321" height="213" as="geometry"/>
                </mxCell>
                <mxCell id="9" value="" style="group" parent="3" vertex="1" connectable="0">
                    <mxGeometry x="11.980000000000018" y="8.649999999999977" width="303.09" height="140.70000000000005" as="geometry"/>
                </mxCell>
                <mxCell id="6" value="is valid VS&lt;br&gt;&amp;amp;&lt;br&gt;VS.type=='unlinking'" style="rhombus;whiteSpace=wrap;html=1;fillColor=#FF9999;fontColor=#333333;strokeColor=#666666;" parent="9" vertex="1">
                    <mxGeometry x="10" width="180" height="101.29" as="geometry"/>
                </mxCell>
                <mxCell id="10" value="response with html error page" style="rounded=1;whiteSpace=wrap;html=1;fillColor=#5797D9;fontColor=#ffffff;strokeColor=#001DBC;" parent="9" vertex="1">
                    <mxGeometry x="199.01999999999998" y="74.35000000000002" width="104.07" height="53.12" as="geometry"/>
                </mxCell>
                <mxCell id="7" value="no" style="edgeStyle=orthogonalEdgeStyle;rounded=0;orthogonalLoop=1;jettySize=auto;html=1;entryX=0.5;entryY=0;entryDx=0;entryDy=0;exitX=1;exitY=0.5;exitDx=0;exitDy=0;" parent="9" source="6" target="10" edge="1">
                    <mxGeometry relative="1" as="geometry">
                        <mxPoint x="232.03999999999996" y="101.70000000000005" as="targetPoint"/>
                    </mxGeometry>
                </mxCell>
                <mxCell id="EcJO1QFU08IKhNkOo2_e-10" value="response with html sequrity_form&lt;br&gt;( account.security_questions, VT)" style="rounded=1;whiteSpace=wrap;html=1;fillColor=#5797D9;fontColor=#ffffff;strokeColor=#001DBC;" parent="3" vertex="1">
                    <mxGeometry x="11.979999999999997" y="149" width="199" height="50" as="geometry"/>
                </mxCell>
                <mxCell id="8" value="yes" style="edgeStyle=orthogonalEdgeStyle;rounded=0;orthogonalLoop=1;jettySize=auto;html=1;entryX=0.5;entryY=0;entryDx=0;entryDy=0;" parent="3" source="6" target="EcJO1QFU08IKhNkOo2_e-10" edge="1">
                    <mxGeometry relative="1" as="geometry">
                        <mxPoint x="152.01999999999998" y="149.35000000000002" as="targetPoint"/>
                    </mxGeometry>
                </mxCell>
                <mxCell id="EcJO1QFU08IKhNkOo2_e-25" style="edgeStyle=none;html=1;entryX=0.5;entryY=0;entryDx=0;entryDy=0;" parent="1" source="EcJO1QFU08IKhNkOo2_e-17" target="EcJO1QFU08IKhNkOo2_e-18" edge="1">
                    <mxGeometry relative="1" as="geometry"/>
                </mxCell>
                <mxCell id="EcJO1QFU08IKhNkOo2_e-17" value="verify unlinking revoke&lt;br&gt;(verification_secret, userName, security_answers)" style="rounded=1;whiteSpace=wrap;html=1;fontStyle=1;fontSize=15;" parent="1" vertex="1">
                    <mxGeometry x="2180.5" y="640" width="236.5" height="60" as="geometry"/>
                </mxCell>
                <mxCell id="EcJO1QFU08IKhNkOo2_e-18" value="server side process" style="swimlane;startSize=0;swimlaneFillColor=#47B347;fontStyle=0;align=left;fontSize=9;" parent="1" vertex="1">
                    <mxGeometry x="2139.5" y="737" width="321" height="293" as="geometry"/>
                </mxCell>
                <mxCell id="EcJO1QFU08IKhNkOo2_e-19" value="" style="group" parent="EcJO1QFU08IKhNkOo2_e-18" vertex="1" connectable="0">
                    <mxGeometry x="11.980000000000018" y="8.649999999999977" width="303.09" height="140.70000000000005" as="geometry"/>
                </mxCell>
                <mxCell id="EcJO1QFU08IKhNkOo2_e-20" value="is valid VS&lt;br&gt;&amp;amp; VS.type=='unlinking'&lt;br&gt;&amp;amp; valid security_answers&lt;br&gt;&amp;amp; valid username" style="rhombus;whiteSpace=wrap;html=1;fillColor=#FF9999;fontColor=#333333;strokeColor=#666666;" parent="EcJO1QFU08IKhNkOo2_e-19" vertex="1">
                    <mxGeometry x="10" width="190" height="110" as="geometry"/>
                </mxCell>
                <mxCell id="EcJO1QFU08IKhNkOo2_e-21" value="response with html error page" style="rounded=1;whiteSpace=wrap;html=1;fillColor=#5797D9;fontColor=#ffffff;strokeColor=#001DBC;" parent="EcJO1QFU08IKhNkOo2_e-19" vertex="1">
                    <mxGeometry x="199.01999999999998" y="74.35000000000002" width="104.07" height="53.12" as="geometry"/>
                </mxCell>
                <mxCell id="EcJO1QFU08IKhNkOo2_e-22" value="no" style="edgeStyle=orthogonalEdgeStyle;rounded=0;orthogonalLoop=1;jettySize=auto;html=1;entryX=0.5;entryY=0;entryDx=0;entryDy=0;exitX=1;exitY=0.5;exitDx=0;exitDy=0;" parent="EcJO1QFU08IKhNkOo2_e-19" source="EcJO1QFU08IKhNkOo2_e-20" target="EcJO1QFU08IKhNkOo2_e-21" edge="1">
                    <mxGeometry relative="1" as="geometry">
                        <mxPoint x="232.03999999999996" y="101.70000000000005" as="targetPoint"/>
                    </mxGeometry>
                </mxCell>
                <mxCell id="_U7U6Ivq2oCK15KBNmji-28" style="edgeStyle=orthogonalEdgeStyle;html=1;entryX=0;entryY=0.5;entryDx=0;entryDy=0;exitX=0.25;exitY=1;exitDx=0;exitDy=0;" edge="1" parent="EcJO1QFU08IKhNkOo2_e-18" source="EcJO1QFU08IKhNkOo2_e-23" target="_U7U6Ivq2oCK15KBNmji-27">
                    <mxGeometry relative="1" as="geometry"/>
                </mxCell>
                <mxCell id="EcJO1QFU08IKhNkOo2_e-23" value="restore verification method" style="rounded=1;whiteSpace=wrap;html=1;fillColor=#5797D9;fontColor=#ffffff;strokeColor=#001DBC;" parent="EcJO1QFU08IKhNkOo2_e-18" vertex="1">
                    <mxGeometry x="16.979999999999997" y="159" width="199" height="50" as="geometry"/>
                </mxCell>
                <mxCell id="EcJO1QFU08IKhNkOo2_e-24" value="yes" style="edgeStyle=orthogonalEdgeStyle;rounded=0;orthogonalLoop=1;jettySize=auto;html=1;entryX=0.5;entryY=0;entryDx=0;entryDy=0;" parent="EcJO1QFU08IKhNkOo2_e-18" source="EcJO1QFU08IKhNkOo2_e-20" target="EcJO1QFU08IKhNkOo2_e-23" edge="1">
                    <mxGeometry relative="1" as="geometry">
                        <mxPoint x="152.01999999999998" y="149.35000000000002" as="targetPoint"/>
                    </mxGeometry>
                </mxCell>
                <mxCell id="_U7U6Ivq2oCK15KBNmji-27" value="response with html success page" style="rounded=1;whiteSpace=wrap;html=1;fillColor=#5797D9;fontColor=#ffffff;strokeColor=#001DBC;" vertex="1" parent="EcJO1QFU08IKhNkOo2_e-18">
                    <mxGeometry x="90.50000000000001" y="226" width="199" height="50" as="geometry"/>
                </mxCell>
                <mxCell id="_U7U6Ivq2oCK15KBNmji-10" value="server side process" style="swimlane;startSize=0;swimlaneFillColor=#47B347;fontStyle=0;align=left;fontSize=9;" vertex="1" parent="1">
                    <mxGeometry x="2558" y="387" width="334" height="243" as="geometry"/>
                </mxCell>
                <mxCell id="_U7U6Ivq2oCK15KBNmji-16" value="is&amp;nbsp;&lt;span style=&quot;background-color: initial;&quot;&gt;valid&amp;nbsp;&lt;/span&gt;&lt;span style=&quot;background-color: initial;&quot;&gt;VM&lt;/span&gt;&lt;div&gt;&lt;span style=&quot;background-color: initial;&quot;&gt;&amp;amp; is verified&lt;/span&gt;&lt;/div&gt;&lt;div&gt;&lt;span style=&quot;background-color: initial;&quot;&gt;&amp;amp; is linked to&amp;nbsp;&lt;/span&gt;&lt;span style=&quot;background-color: initial;&quot;&gt;me&lt;/span&gt;&lt;/div&gt;" style="rhombus;whiteSpace=wrap;html=1;fillColor=#FF9999;fontColor=#333333;strokeColor=#666666;rounded=1;" vertex="1" parent="_U7U6Ivq2oCK15KBNmji-10">
                    <mxGeometry x="95.52999999999975" y="4.860000000000014" width="140" height="114" as="geometry"/>
                </mxCell>
                <mxCell id="_U7U6Ivq2oCK15KBNmji-17" value="response with error" style="rounded=1;whiteSpace=wrap;html=1;fillColor=#5797D9;fontColor=#ffffff;strokeColor=#001DBC;" vertex="1" parent="_U7U6Ivq2oCK15KBNmji-10">
                    <mxGeometry x="211.52999999999975" y="110.86000000000001" width="104.07" height="53.12" as="geometry"/>
                </mxCell>
                <mxCell id="_U7U6Ivq2oCK15KBNmji-18" value="yes" style="edgeStyle=orthogonalEdgeStyle;rounded=1;orthogonalLoop=1;jettySize=auto;html=1;entryX=0.25;entryY=0;entryDx=0;entryDy=0;exitX=0;exitY=0.5;exitDx=0;exitDy=0;" edge="1" source="_U7U6Ivq2oCK15KBNmji-16" parent="_U7U6Ivq2oCK15KBNmji-10" target="_U7U6Ivq2oCK15KBNmji-20">
                    <mxGeometry relative="1" as="geometry">
                        <mxPoint x="47.029999999999745" y="147.86" as="targetPoint"/>
                    </mxGeometry>
                </mxCell>
                <mxCell id="_U7U6Ivq2oCK15KBNmji-19" value="no" style="edgeStyle=orthogonalEdgeStyle;rounded=1;orthogonalLoop=1;jettySize=auto;html=1;entryX=0.5;entryY=0;entryDx=0;entryDy=0;exitX=1;exitY=0.5;exitDx=0;exitDy=0;" edge="1" source="_U7U6Ivq2oCK15KBNmji-16" target="_U7U6Ivq2oCK15KBNmji-17" parent="_U7U6Ivq2oCK15KBNmji-10">
                    <mxGeometry relative="1" as="geometry">
                        <mxPoint x="-1736.43" y="-453.44000000000005" as="targetPoint"/>
                    </mxGeometry>
                </mxCell>
                <mxCell id="_U7U6Ivq2oCK15KBNmji-20" value="create a verification secret and save it&amp;nbsp;&lt;br&gt;&amp;amp; Notify the dselected verification method (secret)" style="rounded=1;whiteSpace=wrap;html=1;fillColor=#5797D9;fontColor=#ffffff;strokeColor=#001DBC;" vertex="1" parent="_U7U6Ivq2oCK15KBNmji-10">
                    <mxGeometry x="13.030000000000001" y="172" width="247" height="50" as="geometry"/>
                </mxCell>
                <mxCell id="_U7U6Ivq2oCK15KBNmji-21" value="server side process" style="swimlane;startSize=0;swimlaneFillColor=#47B347;fontStyle=0;align=left;fontSize=9;" vertex="1" parent="1">
                    <mxGeometry x="2567.5" y="779" width="317.5" height="241" as="geometry"/>
                </mxCell>
                <mxCell id="_U7U6Ivq2oCK15KBNmji-23" value="response with html error page" style="rounded=1;whiteSpace=wrap;html=1;fillColor=#5797D9;fontColor=#ffffff;strokeColor=#001DBC;" vertex="1" parent="_U7U6Ivq2oCK15KBNmji-21">
                    <mxGeometry x="201.21999999999983" y="89.35000000000005" width="104.07" height="53.12" as="geometry"/>
                </mxCell>
                <mxCell id="_U7U6Ivq2oCK15KBNmji-24" value="is valid VS&lt;br&gt;&amp;amp;&lt;br&gt;VS.type=='deactivating'&lt;br&gt;" style="rhombus;whiteSpace=wrap;html=1;fillColor=#FF9999;fontColor=#333333;strokeColor=#666666;" vertex="1" parent="_U7U6Ivq2oCK15KBNmji-21">
                    <mxGeometry x="12.2" y="7" width="177.8" height="120" as="geometry"/>
                </mxCell>
                <mxCell id="_U7U6Ivq2oCK15KBNmji-25" value="no" style="edgeStyle=orthogonalEdgeStyle;rounded=0;orthogonalLoop=1;jettySize=auto;html=1;entryX=0.5;entryY=0;entryDx=0;entryDy=0;exitX=1;exitY=0.5;exitDx=0;exitDy=0;" edge="1" source="_U7U6Ivq2oCK15KBNmji-24" target="_U7U6Ivq2oCK15KBNmji-23" parent="_U7U6Ivq2oCK15KBNmji-21">
                    <mxGeometry relative="1" as="geometry">
                        <mxPoint x="-1916.74" y="-283.94999999999993" as="targetPoint"/>
                    </mxGeometry>
                </mxCell>
                <mxCell id="_U7U6Ivq2oCK15KBNmji-26" value="yes" style="edgeStyle=orthogonalEdgeStyle;rounded=0;orthogonalLoop=1;jettySize=auto;html=1;entryX=0.25;entryY=0;entryDx=0;entryDy=0;" edge="1" source="_U7U6Ivq2oCK15KBNmji-24" parent="_U7U6Ivq2oCK15KBNmji-21" target="_U7U6Ivq2oCK15KBNmji-29">
                    <mxGeometry relative="1" as="geometry">
                        <mxPoint x="101.69999999999985" y="150.35000000000005" as="targetPoint"/>
                    </mxGeometry>
                </mxCell>
                <mxCell id="_U7U6Ivq2oCK15KBNmji-29" value="relocate the record/document to the deactivated accounts table/collection" style="rounded=1;whiteSpace=wrap;html=1;fillColor=#5797D9;fontColor=#ffffff;strokeColor=#001DBC;" vertex="1" parent="_U7U6Ivq2oCK15KBNmji-21">
                    <mxGeometry x="46.5" y="163" width="224.5" height="57" as="geometry"/>
                </mxCell>
            </root>
        </mxGraphModel>
    </diagram>
    <diagram id="CxpQJB-mhpuOJnPQDDZv" name="Page-2">
        <mxGraphModel dx="1829" dy="563" grid="1" gridSize="10" guides="1" tooltips="1" connect="1" arrows="1" fold="1" page="1" pageScale="1" pageWidth="827" pageHeight="1169" math="0" shadow="0">
            <root>
                <mxCell id="0"/>
                <mxCell id="1" parent="0"/>
                <mxCell id="o5zWqy-yZP3sflRj8p0Q-1" value="Verification Method" style="rounded=0;whiteSpace=wrap;html=1;" parent="1" vertex="1">
                    <mxGeometry x="-265.5" y="360" width="120" height="60" as="geometry"/>
                </mxCell>
                <mxCell id="o5zWqy-yZP3sflRj8p0Q-2" value="&lt;font style=&quot;&quot;&gt;&lt;u style=&quot;font-size: 16px;&quot;&gt;identifier&lt;/u&gt;&lt;font style=&quot;font-size: 14px;&quot;&gt; : email | phone&lt;/font&gt;&lt;/font&gt;" style="ellipse;whiteSpace=wrap;html=1;" parent="1" vertex="1">
                    <mxGeometry x="-356.5" y="464" width="170" height="60" as="geometry"/>
                </mxCell>
                <mxCell id="o5zWqy-yZP3sflRj8p0Q-4" value="is_verifyed" style="ellipse;whiteSpace=wrap;html=1;" parent="1" vertex="1">
                    <mxGeometry x="-245.5" y="271" width="100" height="40" as="geometry"/>
                </mxCell>
                <mxCell id="o5zWqy-yZP3sflRj8p0Q-5" value="is_loginable" style="ellipse;whiteSpace=wrap;html=1;" parent="1" vertex="1">
                    <mxGeometry x="-195.5" y="315" width="90" height="30" as="geometry"/>
                </mxCell>
                <mxCell id="o5zWqy-yZP3sflRj8p0Q-6" value="hashed password?" style="ellipse;whiteSpace=wrap;html=1;" parent="1" vertex="1">
                    <mxGeometry x="-420" y="326" width="110" height="50" as="geometry"/>
                </mxCell>
                <mxCell id="o5zWqy-yZP3sflRj8p0Q-7" value="" style="endArrow=none;html=1;rounded=0;entryX=0;entryY=0.25;entryDx=0;entryDy=0;exitX=1;exitY=0.5;exitDx=0;exitDy=0;" parent="1" source="o5zWqy-yZP3sflRj8p0Q-6" target="o5zWqy-yZP3sflRj8p0Q-1" edge="1">
                    <mxGeometry width="50" height="50" relative="1" as="geometry">
                        <mxPoint x="-115.5" y="500" as="sourcePoint"/>
                        <mxPoint x="-65.5" y="450" as="targetPoint"/>
                    </mxGeometry>
                </mxCell>
                <mxCell id="o5zWqy-yZP3sflRj8p0Q-8" value="" style="endArrow=none;html=1;rounded=0;entryX=0;entryY=1;entryDx=0;entryDy=0;exitX=0.75;exitY=0;exitDx=0;exitDy=0;" parent="1" source="o5zWqy-yZP3sflRj8p0Q-1" target="o5zWqy-yZP3sflRj8p0Q-5" edge="1">
                    <mxGeometry width="50" height="50" relative="1" as="geometry">
                        <mxPoint x="-125.5" y="410" as="sourcePoint"/>
                        <mxPoint x="-75.5" y="360" as="targetPoint"/>
                    </mxGeometry>
                </mxCell>
                <mxCell id="o5zWqy-yZP3sflRj8p0Q-10" value="" style="endArrow=none;html=1;rounded=0;exitX=0.5;exitY=0;exitDx=0;exitDy=0;entryX=0.25;entryY=1;entryDx=0;entryDy=0;" parent="1" source="o5zWqy-yZP3sflRj8p0Q-2" target="o5zWqy-yZP3sflRj8p0Q-1" edge="1">
                    <mxGeometry width="50" height="50" relative="1" as="geometry">
                        <mxPoint x="-285.5" y="380" as="sourcePoint"/>
                        <mxPoint x="-235.5" y="330" as="targetPoint"/>
                    </mxGeometry>
                </mxCell>
                <mxCell id="o5zWqy-yZP3sflRj8p0Q-11" value="" style="endArrow=none;html=1;rounded=0;entryX=0.5;entryY=1;entryDx=0;entryDy=0;exitX=0.5;exitY=0;exitDx=0;exitDy=0;" parent="1" source="o5zWqy-yZP3sflRj8p0Q-1" target="o5zWqy-yZP3sflRj8p0Q-4" edge="1">
                    <mxGeometry width="50" height="50" relative="1" as="geometry">
                        <mxPoint x="-265.5" y="370" as="sourcePoint"/>
                        <mxPoint x="-215.5" y="320" as="targetPoint"/>
                    </mxGeometry>
                </mxCell>
                <mxCell id="o5zWqy-yZP3sflRj8p0Q-19" value="" style="endArrow=none;html=1;rounded=0;exitX=0;exitY=1;exitDx=0;exitDy=0;entryX=0.052;entryY=0.747;entryDx=0;entryDy=0;entryPerimeter=0;" parent="1" source="o5zWqy-yZP3sflRj8p0Q-1" target="o5zWqy-yZP3sflRj8p0Q-39" edge="1">
                    <mxGeometry width="50" height="50" relative="1" as="geometry">
                        <mxPoint x="104.5" y="390" as="sourcePoint"/>
                        <mxPoint x="154.5" y="340" as="targetPoint"/>
                    </mxGeometry>
                </mxCell>
                <mxCell id="o5zWqy-yZP3sflRj8p0Q-21" value="Account" style="rounded=0;whiteSpace=wrap;html=1;" parent="1" vertex="1">
                    <mxGeometry x="156.5" y="570" width="120" height="60" as="geometry"/>
                </mxCell>
                <mxCell id="o5zWqy-yZP3sflRj8p0Q-22" value="&lt;u&gt;&lt;font style=&quot;font-size: 16px;&quot;&gt;&lt;b&gt;id&lt;/b&gt;&lt;/font&gt;&lt;/u&gt;" style="ellipse;whiteSpace=wrap;html=1;" parent="1" vertex="1">
                    <mxGeometry x="86.5" y="510" width="90" height="40" as="geometry"/>
                </mxCell>
                <mxCell id="o5zWqy-yZP3sflRj8p0Q-23" value="name" style="ellipse;whiteSpace=wrap;html=1;" parent="1" vertex="1">
                    <mxGeometry x="22.5" y="585" width="100" height="40" as="geometry"/>
                </mxCell>
                <mxCell id="o5zWqy-yZP3sflRj8p0Q-24" value="image_url" style="ellipse;whiteSpace=wrap;html=1;" parent="1" vertex="1">
                    <mxGeometry x="326.5" y="585" width="90" height="30" as="geometry"/>
                </mxCell>
                <mxCell id="o5zWqy-yZP3sflRj8p0Q-27" value="" style="endArrow=none;html=1;rounded=0;entryX=0;entryY=1;entryDx=0;entryDy=0;exitX=1;exitY=0.75;exitDx=0;exitDy=0;" parent="1" source="o5zWqy-yZP3sflRj8p0Q-21" target="o5zWqy-yZP3sflRj8p0Q-24" edge="1">
                    <mxGeometry width="50" height="50" relative="1" as="geometry">
                        <mxPoint x="106.5" y="320" as="sourcePoint"/>
                        <mxPoint x="156.5" y="270" as="targetPoint"/>
                    </mxGeometry>
                </mxCell>
                <mxCell id="o5zWqy-yZP3sflRj8p0Q-28" value="" style="endArrow=none;html=1;rounded=0;exitX=0.5;exitY=1;exitDx=0;exitDy=0;entryX=0;entryY=0;entryDx=0;entryDy=0;" parent="1" source="o5zWqy-yZP3sflRj8p0Q-22" target="o5zWqy-yZP3sflRj8p0Q-21" edge="1">
                    <mxGeometry width="50" height="50" relative="1" as="geometry">
                        <mxPoint x="-53.5" y="290" as="sourcePoint"/>
                        <mxPoint x="-3.5" y="240" as="targetPoint"/>
                    </mxGeometry>
                </mxCell>
                <mxCell id="o5zWqy-yZP3sflRj8p0Q-29" value="" style="endArrow=none;html=1;rounded=0;entryX=1;entryY=0.5;entryDx=0;entryDy=0;exitX=0;exitY=0.5;exitDx=0;exitDy=0;" parent="1" source="o5zWqy-yZP3sflRj8p0Q-21" target="o5zWqy-yZP3sflRj8p0Q-23" edge="1">
                    <mxGeometry width="50" height="50" relative="1" as="geometry">
                        <mxPoint x="-33.5" y="280" as="sourcePoint"/>
                        <mxPoint x="16.5" y="230" as="targetPoint"/>
                    </mxGeometry>
                </mxCell>
                <mxCell id="o5zWqy-yZP3sflRj8p0Q-31" value="...account_data" style="ellipse;whiteSpace=wrap;html=1;" parent="1" vertex="1">
                    <mxGeometry x="97.5" y="680" width="120" height="50" as="geometry"/>
                </mxCell>
                <mxCell id="o5zWqy-yZP3sflRj8p0Q-32" value="" style="endArrow=none;html=1;rounded=0;entryX=0.25;entryY=1;entryDx=0;entryDy=0;exitX=0.5;exitY=0;exitDx=0;exitDy=0;" parent="1" source="o5zWqy-yZP3sflRj8p0Q-31" target="o5zWqy-yZP3sflRj8p0Q-21" edge="1">
                    <mxGeometry width="50" height="50" relative="1" as="geometry">
                        <mxPoint x="146.5" y="720" as="sourcePoint"/>
                        <mxPoint x="196.5" y="670" as="targetPoint"/>
                    </mxGeometry>
                </mxCell>
                <mxCell id="o5zWqy-yZP3sflRj8p0Q-36" value="can be email or phone number" style="text;html=1;strokeColor=none;fillColor=none;align=center;verticalAlign=middle;whiteSpace=wrap;rounded=0;fontColor=#d42121;" parent="1" vertex="1">
                    <mxGeometry x="-382.5" y="515" width="90" height="30" as="geometry"/>
                </mxCell>
                <mxCell id="o5zWqy-yZP3sflRj8p0Q-38" value="used in 'e' type loginable VMs" style="text;html=1;strokeColor=none;fillColor=none;align=center;verticalAlign=middle;whiteSpace=wrap;rounded=0;fontColor=#d42121;" parent="1" vertex="1">
                    <mxGeometry x="-472.5" y="303" width="90" height="30" as="geometry"/>
                </mxCell>
                <mxCell id="o5zWqy-yZP3sflRj8p0Q-39" value="type : 'p' | 'e'" style="ellipse;whiteSpace=wrap;html=1;" parent="1" vertex="1">
                    <mxGeometry x="-389" y="434" width="100" height="30" as="geometry"/>
                </mxCell>
                <mxCell id="o5zWqy-yZP3sflRj8p0Q-40" value="linked to" style="rhombus;whiteSpace=wrap;html=1;" parent="1" vertex="1">
                    <mxGeometry x="-60" y="444" width="80" height="80" as="geometry"/>
                </mxCell>
                <mxCell id="o5zWqy-yZP3sflRj8p0Q-45" value="" style="edgeStyle=entityRelationEdgeStyle;fontSize=12;html=1;endArrow=ERone;endFill=1;rounded=0;entryX=0;entryY=0.25;entryDx=0;entryDy=0;exitX=0.5;exitY=1;exitDx=0;exitDy=0;" parent="1" source="o5zWqy-yZP3sflRj8p0Q-40" target="o5zWqy-yZP3sflRj8p0Q-21" edge="1">
                    <mxGeometry width="100" height="100" relative="1" as="geometry">
                        <mxPoint x="297" y="810" as="sourcePoint"/>
                        <mxPoint x="261" y="620" as="targetPoint"/>
                    </mxGeometry>
                </mxCell>
                <mxCell id="o5zWqy-yZP3sflRj8p0Q-46" value="" style="edgeStyle=entityRelationEdgeStyle;fontSize=12;html=1;endArrow=ERoneToMany;rounded=0;entryX=1;entryY=0.75;entryDx=0;entryDy=0;exitX=0.5;exitY=0;exitDx=0;exitDy=0;" parent="1" source="o5zWqy-yZP3sflRj8p0Q-40" target="o5zWqy-yZP3sflRj8p0Q-1" edge="1">
                    <mxGeometry width="100" height="100" relative="1" as="geometry">
                        <mxPoint x="230" y="620" as="sourcePoint"/>
                        <mxPoint x="330" y="520" as="targetPoint"/>
                        <Array as="points">
                            <mxPoint x="390" y="500"/>
                            <mxPoint x="370" y="500"/>
                            <mxPoint x="366" y="500"/>
                            <mxPoint x="370" y="500"/>
                            <mxPoint x="390" y="440"/>
                            <mxPoint x="390" y="500"/>
                        </Array>
                    </mxGeometry>
                </mxCell>
                <mxCell id="9-r3AcNAB6-tvo68kVw7-1" value="&lt;font style=&quot;font-size: 16px;&quot;&gt;&lt;b&gt;id&lt;/b&gt;&lt;/font&gt;" style="ellipse;whiteSpace=wrap;html=1;align=center;fontStyle=4;" parent="1" vertex="1">
                    <mxGeometry x="-359.5" y="289" width="39" height="30" as="geometry"/>
                </mxCell>
                <mxCell id="9-r3AcNAB6-tvo68kVw7-2" value="" style="endArrow=none;html=1;rounded=0;entryX=0;entryY=0;entryDx=0;entryDy=0;exitX=0.5;exitY=1;exitDx=0;exitDy=0;" parent="1" source="9-r3AcNAB6-tvo68kVw7-1" target="o5zWqy-yZP3sflRj8p0Q-1" edge="1">
                    <mxGeometry relative="1" as="geometry">
                        <mxPoint x="-495.5" y="440" as="sourcePoint"/>
                        <mxPoint x="-335.5" y="440" as="targetPoint"/>
                    </mxGeometry>
                </mxCell>
                <object label="Verification Method" type="'e' | 'p'" identifier="email | phone" is_verified="bool" is_loginable="bool" hashed_password="null | string" account_id="string" id="wKV96D3HA0CmSMx8KGgX-1">
                    <mxCell style="shape=table;startSize=30;container=1;collapsible=1;childLayout=tableLayout;fixedRows=1;rowLines=0;fontStyle=1;align=center;resizeLast=1;html=1;" parent="1" vertex="1">
                        <mxGeometry x="480" y="270" width="330" height="330" as="geometry">
                            <mxRectangle x="530" y="140" width="150" height="30" as="alternateBounds"/>
                        </mxGeometry>
                    </mxCell>
                </object>
                <mxCell id="wKV96D3HA0CmSMx8KGgX-2" value="" style="shape=tableRow;horizontal=0;startSize=0;swimlaneHead=0;swimlaneBody=0;fillColor=none;collapsible=0;dropTarget=0;points=[[0,0.5],[1,0.5]];portConstraint=eastwest;top=0;left=0;right=0;bottom=1;" parent="wKV96D3HA0CmSMx8KGgX-1" vertex="1">
                    <mxGeometry y="30" width="330" height="30" as="geometry"/>
                </mxCell>
                <mxCell id="wKV96D3HA0CmSMx8KGgX-3" value="PK" style="shape=partialRectangle;connectable=0;fillColor=none;top=0;left=0;bottom=0;right=0;fontStyle=1;overflow=hidden;whiteSpace=wrap;html=1;" parent="wKV96D3HA0CmSMx8KGgX-2" vertex="1">
                    <mxGeometry width="30" height="30" as="geometry">
                        <mxRectangle width="30" height="30" as="alternateBounds"/>
                    </mxGeometry>
                </mxCell>
                <mxCell id="wKV96D3HA0CmSMx8KGgX-30" value="id" style="shape=partialRectangle;connectable=0;fillColor=none;top=0;left=0;bottom=0;right=0;align=left;spacingLeft=6;fontStyle=5;overflow=hidden;whiteSpace=wrap;html=1;" parent="wKV96D3HA0CmSMx8KGgX-2" vertex="1">
                    <mxGeometry x="30" width="150" height="30" as="geometry">
                        <mxRectangle width="150" height="30" as="alternateBounds"/>
                    </mxGeometry>
                </mxCell>
                <mxCell id="wKV96D3HA0CmSMx8KGgX-4" value="sgtring" style="shape=partialRectangle;connectable=0;fillColor=none;top=0;left=0;bottom=0;right=0;align=left;spacingLeft=6;fontStyle=5;overflow=hidden;whiteSpace=wrap;html=1;" parent="wKV96D3HA0CmSMx8KGgX-2" vertex="1">
                    <mxGeometry x="180" width="150" height="30" as="geometry">
                        <mxRectangle width="150" height="30" as="alternateBounds"/>
                    </mxGeometry>
                </mxCell>
                <mxCell id="wKV96D3HA0CmSMx8KGgX-24" value="" style="shape=tableRow;horizontal=0;startSize=0;swimlaneHead=0;swimlaneBody=0;fillColor=none;collapsible=0;dropTarget=0;points=[[0,0.5],[1,0.5]];portConstraint=eastwest;top=0;left=0;right=0;bottom=1;" parent="wKV96D3HA0CmSMx8KGgX-1" vertex="1">
                    <mxGeometry y="60" width="330" height="30" as="geometry"/>
                </mxCell>
                <mxCell id="wKV96D3HA0CmSMx8KGgX-25" value="PK" style="shape=partialRectangle;connectable=0;fillColor=none;top=0;left=0;bottom=0;right=0;fontStyle=1;overflow=hidden;whiteSpace=wrap;html=1;" parent="wKV96D3HA0CmSMx8KGgX-24" vertex="1">
                    <mxGeometry width="30" height="30" as="geometry">
                        <mxRectangle width="30" height="30" as="alternateBounds"/>
                    </mxGeometry>
                </mxCell>
                <mxCell id="wKV96D3HA0CmSMx8KGgX-31" value="identifier" style="shape=partialRectangle;connectable=0;fillColor=none;top=0;left=0;bottom=0;right=0;align=left;spacingLeft=6;fontStyle=5;overflow=hidden;whiteSpace=wrap;html=1;" parent="wKV96D3HA0CmSMx8KGgX-24" vertex="1">
                    <mxGeometry x="30" width="150" height="30" as="geometry">
                        <mxRectangle width="150" height="30" as="alternateBounds"/>
                    </mxGeometry>
                </mxCell>
                <mxCell id="wKV96D3HA0CmSMx8KGgX-26" value="string" style="shape=partialRectangle;connectable=0;fillColor=none;top=0;left=0;bottom=0;right=0;align=left;spacingLeft=6;fontStyle=5;overflow=hidden;whiteSpace=wrap;html=1;" parent="wKV96D3HA0CmSMx8KGgX-24" vertex="1">
                    <mxGeometry x="180" width="150" height="30" as="geometry">
                        <mxRectangle width="150" height="30" as="alternateBounds"/>
                    </mxGeometry>
                </mxCell>
                <mxCell id="wKV96D3HA0CmSMx8KGgX-27" value="" style="shape=tableRow;horizontal=0;startSize=0;swimlaneHead=0;swimlaneBody=0;fillColor=none;collapsible=0;dropTarget=0;points=[[0,0.5],[1,0.5]];portConstraint=eastwest;top=0;left=0;right=0;bottom=1;" parent="wKV96D3HA0CmSMx8KGgX-1" vertex="1">
                    <mxGeometry y="90" width="330" height="30" as="geometry"/>
                </mxCell>
                <mxCell id="wKV96D3HA0CmSMx8KGgX-28" value="FK" style="shape=partialRectangle;connectable=0;fillColor=none;top=0;left=0;bottom=0;right=0;fontStyle=1;overflow=hidden;whiteSpace=wrap;html=1;" parent="wKV96D3HA0CmSMx8KGgX-27" vertex="1">
                    <mxGeometry width="30" height="30" as="geometry">
                        <mxRectangle width="30" height="30" as="alternateBounds"/>
                    </mxGeometry>
                </mxCell>
                <mxCell id="wKV96D3HA0CmSMx8KGgX-32" value="account_id" style="shape=partialRectangle;connectable=0;fillColor=none;top=0;left=0;bottom=0;right=0;align=left;spacingLeft=6;fontStyle=5;overflow=hidden;whiteSpace=wrap;html=1;" parent="wKV96D3HA0CmSMx8KGgX-27" vertex="1">
                    <mxGeometry x="30" width="150" height="30" as="geometry">
                        <mxRectangle width="150" height="30" as="alternateBounds"/>
                    </mxGeometry>
                </mxCell>
                <mxCell id="wKV96D3HA0CmSMx8KGgX-29" value="null | string" style="shape=partialRectangle;connectable=0;fillColor=none;top=0;left=0;bottom=0;right=0;align=left;spacingLeft=6;fontStyle=5;overflow=hidden;whiteSpace=wrap;html=1;" parent="wKV96D3HA0CmSMx8KGgX-27" vertex="1">
                    <mxGeometry x="180" width="150" height="30" as="geometry">
                        <mxRectangle width="150" height="30" as="alternateBounds"/>
                    </mxGeometry>
                </mxCell>
                <mxCell id="wKV96D3HA0CmSMx8KGgX-21" value="" style="shape=tableRow;horizontal=0;startSize=0;swimlaneHead=0;swimlaneBody=0;fillColor=none;collapsible=0;dropTarget=0;points=[[0,0.5],[1,0.5]];portConstraint=eastwest;top=0;left=0;right=0;bottom=0;" parent="wKV96D3HA0CmSMx8KGgX-1" vertex="1">
                    <mxGeometry y="120" width="330" height="30" as="geometry"/>
                </mxCell>
                <mxCell id="wKV96D3HA0CmSMx8KGgX-22" value="" style="shape=partialRectangle;connectable=0;fillColor=none;top=0;left=0;bottom=0;right=0;editable=1;overflow=hidden;whiteSpace=wrap;html=1;" parent="wKV96D3HA0CmSMx8KGgX-21" vertex="1">
                    <mxGeometry width="30" height="30" as="geometry">
                        <mxRectangle width="30" height="30" as="alternateBounds"/>
                    </mxGeometry>
                </mxCell>
                <mxCell id="wKV96D3HA0CmSMx8KGgX-33" value="type&lt;br&gt;" style="shape=partialRectangle;connectable=0;fillColor=none;top=0;left=0;bottom=0;right=0;align=left;spacingLeft=6;overflow=hidden;whiteSpace=wrap;html=1;" parent="wKV96D3HA0CmSMx8KGgX-21" vertex="1">
                    <mxGeometry x="30" width="150" height="30" as="geometry">
                        <mxRectangle width="150" height="30" as="alternateBounds"/>
                    </mxGeometry>
                </mxCell>
                <mxCell id="wKV96D3HA0CmSMx8KGgX-23" value="'e' | 'p'" style="shape=partialRectangle;connectable=0;fillColor=none;top=0;left=0;bottom=0;right=0;align=left;spacingLeft=6;overflow=hidden;whiteSpace=wrap;html=1;" parent="wKV96D3HA0CmSMx8KGgX-21" vertex="1">
                    <mxGeometry x="180" width="150" height="30" as="geometry">
                        <mxRectangle width="150" height="30" as="alternateBounds"/>
                    </mxGeometry>
                </mxCell>
                <mxCell id="wKV96D3HA0CmSMx8KGgX-18" value="" style="shape=tableRow;horizontal=0;startSize=0;swimlaneHead=0;swimlaneBody=0;fillColor=none;collapsible=0;dropTarget=0;points=[[0,0.5],[1,0.5]];portConstraint=eastwest;top=0;left=0;right=0;bottom=0;" parent="wKV96D3HA0CmSMx8KGgX-1" vertex="1">
                    <mxGeometry y="150" width="330" height="30" as="geometry"/>
                </mxCell>
                <mxCell id="wKV96D3HA0CmSMx8KGgX-19" value="" style="shape=partialRectangle;connectable=0;fillColor=none;top=0;left=0;bottom=0;right=0;editable=1;overflow=hidden;whiteSpace=wrap;html=1;" parent="wKV96D3HA0CmSMx8KGgX-18" vertex="1">
                    <mxGeometry width="30" height="30" as="geometry">
                        <mxRectangle width="30" height="30" as="alternateBounds"/>
                    </mxGeometry>
                </mxCell>
                <mxCell id="wKV96D3HA0CmSMx8KGgX-34" value="is_verified" style="shape=partialRectangle;connectable=0;fillColor=none;top=0;left=0;bottom=0;right=0;align=left;spacingLeft=6;overflow=hidden;whiteSpace=wrap;html=1;" parent="wKV96D3HA0CmSMx8KGgX-18" vertex="1">
                    <mxGeometry x="30" width="150" height="30" as="geometry">
                        <mxRectangle width="150" height="30" as="alternateBounds"/>
                    </mxGeometry>
                </mxCell>
                <mxCell id="wKV96D3HA0CmSMx8KGgX-20" value="bool" style="shape=partialRectangle;connectable=0;fillColor=none;top=0;left=0;bottom=0;right=0;align=left;spacingLeft=6;overflow=hidden;whiteSpace=wrap;html=1;" parent="wKV96D3HA0CmSMx8KGgX-18" vertex="1">
                    <mxGeometry x="180" width="150" height="30" as="geometry">
                        <mxRectangle width="150" height="30" as="alternateBounds"/>
                    </mxGeometry>
                </mxCell>
                <mxCell id="wKV96D3HA0CmSMx8KGgX-15" value="" style="shape=tableRow;horizontal=0;startSize=0;swimlaneHead=0;swimlaneBody=0;fillColor=none;collapsible=0;dropTarget=0;points=[[0,0.5],[1,0.5]];portConstraint=eastwest;top=0;left=0;right=0;bottom=0;" parent="wKV96D3HA0CmSMx8KGgX-1" vertex="1">
                    <mxGeometry y="180" width="330" height="30" as="geometry"/>
                </mxCell>
                <mxCell id="wKV96D3HA0CmSMx8KGgX-16" value="" style="shape=partialRectangle;connectable=0;fillColor=none;top=0;left=0;bottom=0;right=0;editable=1;overflow=hidden;whiteSpace=wrap;html=1;" parent="wKV96D3HA0CmSMx8KGgX-15" vertex="1">
                    <mxGeometry width="30" height="30" as="geometry">
                        <mxRectangle width="30" height="30" as="alternateBounds"/>
                    </mxGeometry>
                </mxCell>
                <mxCell id="wKV96D3HA0CmSMx8KGgX-35" value="is_loginable" style="shape=partialRectangle;connectable=0;fillColor=none;top=0;left=0;bottom=0;right=0;align=left;spacingLeft=6;overflow=hidden;whiteSpace=wrap;html=1;" parent="wKV96D3HA0CmSMx8KGgX-15" vertex="1">
                    <mxGeometry x="30" width="150" height="30" as="geometry">
                        <mxRectangle width="150" height="30" as="alternateBounds"/>
                    </mxGeometry>
                </mxCell>
                <mxCell id="wKV96D3HA0CmSMx8KGgX-17" value="bool" style="shape=partialRectangle;connectable=0;fillColor=none;top=0;left=0;bottom=0;right=0;align=left;spacingLeft=6;overflow=hidden;whiteSpace=wrap;html=1;" parent="wKV96D3HA0CmSMx8KGgX-15" vertex="1">
                    <mxGeometry x="180" width="150" height="30" as="geometry">
                        <mxRectangle width="150" height="30" as="alternateBounds"/>
                    </mxGeometry>
                </mxCell>
                <mxCell id="wKV96D3HA0CmSMx8KGgX-5" value="" style="shape=tableRow;horizontal=0;startSize=0;swimlaneHead=0;swimlaneBody=0;fillColor=none;collapsible=0;dropTarget=0;points=[[0,0.5],[1,0.5]];portConstraint=eastwest;top=0;left=0;right=0;bottom=0;" parent="wKV96D3HA0CmSMx8KGgX-1" vertex="1">
                    <mxGeometry y="210" width="330" height="30" as="geometry"/>
                </mxCell>
                <mxCell id="wKV96D3HA0CmSMx8KGgX-6" value="" style="shape=partialRectangle;connectable=0;fillColor=none;top=0;left=0;bottom=0;right=0;editable=1;overflow=hidden;whiteSpace=wrap;html=1;" parent="wKV96D3HA0CmSMx8KGgX-5" vertex="1">
                    <mxGeometry width="30" height="30" as="geometry">
                        <mxRectangle width="30" height="30" as="alternateBounds"/>
                    </mxGeometry>
                </mxCell>
                <mxCell id="wKV96D3HA0CmSMx8KGgX-36" value="hashed_password" style="shape=partialRectangle;connectable=0;fillColor=none;top=0;left=0;bottom=0;right=0;align=left;spacingLeft=6;overflow=hidden;whiteSpace=wrap;html=1;" parent="wKV96D3HA0CmSMx8KGgX-5" vertex="1">
                    <mxGeometry x="30" width="150" height="30" as="geometry">
                        <mxRectangle width="150" height="30" as="alternateBounds"/>
                    </mxGeometry>
                </mxCell>
                <mxCell id="wKV96D3HA0CmSMx8KGgX-7" value="null | string" style="shape=partialRectangle;connectable=0;fillColor=none;top=0;left=0;bottom=0;right=0;align=left;spacingLeft=6;overflow=hidden;whiteSpace=wrap;html=1;" parent="wKV96D3HA0CmSMx8KGgX-5" vertex="1">
                    <mxGeometry x="180" width="150" height="30" as="geometry">
                        <mxRectangle width="150" height="30" as="alternateBounds"/>
                    </mxGeometry>
                </mxCell>
                <mxCell id="Vt1gkLVaoosMy38-fnXn-16" style="shape=tableRow;horizontal=0;startSize=0;swimlaneHead=0;swimlaneBody=0;fillColor=none;collapsible=0;dropTarget=0;points=[[0,0.5],[1,0.5]];portConstraint=eastwest;top=0;left=0;right=0;bottom=0;" parent="wKV96D3HA0CmSMx8KGgX-1" vertex="1">
                    <mxGeometry y="240" width="330" height="30" as="geometry"/>
                </mxCell>
                <mxCell id="Vt1gkLVaoosMy38-fnXn-17" style="shape=partialRectangle;connectable=0;fillColor=none;top=0;left=0;bottom=0;right=0;editable=1;overflow=hidden;whiteSpace=wrap;html=1;" parent="Vt1gkLVaoosMy38-fnXn-16" vertex="1">
                    <mxGeometry width="30" height="30" as="geometry">
                        <mxRectangle width="30" height="30" as="alternateBounds"/>
                    </mxGeometry>
                </mxCell>
                <mxCell id="Vt1gkLVaoosMy38-fnXn-18" value="created_at" style="shape=partialRectangle;connectable=0;fillColor=none;top=0;left=0;bottom=0;right=0;align=left;spacingLeft=6;overflow=hidden;whiteSpace=wrap;html=1;" parent="Vt1gkLVaoosMy38-fnXn-16" vertex="1">
                    <mxGeometry x="30" width="150" height="30" as="geometry">
                        <mxRectangle width="150" height="30" as="alternateBounds"/>
                    </mxGeometry>
                </mxCell>
                <mxCell id="Vt1gkLVaoosMy38-fnXn-19" value="number" style="shape=partialRectangle;connectable=0;fillColor=none;top=0;left=0;bottom=0;right=0;align=left;spacingLeft=6;overflow=hidden;whiteSpace=wrap;html=1;" parent="Vt1gkLVaoosMy38-fnXn-16" vertex="1">
                    <mxGeometry x="180" width="150" height="30" as="geometry">
                        <mxRectangle width="150" height="30" as="alternateBounds"/>
                    </mxGeometry>
                </mxCell>
                <mxCell id="Vt1gkLVaoosMy38-fnXn-20" style="shape=tableRow;horizontal=0;startSize=0;swimlaneHead=0;swimlaneBody=0;fillColor=none;collapsible=0;dropTarget=0;points=[[0,0.5],[1,0.5]];portConstraint=eastwest;top=0;left=0;right=0;bottom=0;" parent="wKV96D3HA0CmSMx8KGgX-1" vertex="1">
                    <mxGeometry y="270" width="330" height="30" as="geometry"/>
                </mxCell>
                <mxCell id="Vt1gkLVaoosMy38-fnXn-21" style="shape=partialRectangle;connectable=0;fillColor=none;top=0;left=0;bottom=0;right=0;editable=1;overflow=hidden;whiteSpace=wrap;html=1;" parent="Vt1gkLVaoosMy38-fnXn-20" vertex="1">
                    <mxGeometry width="30" height="30" as="geometry">
                        <mxRectangle width="30" height="30" as="alternateBounds"/>
                    </mxGeometry>
                </mxCell>
                <mxCell id="Vt1gkLVaoosMy38-fnXn-22" value="verified_at" style="shape=partialRectangle;connectable=0;fillColor=none;top=0;left=0;bottom=0;right=0;align=left;spacingLeft=6;overflow=hidden;whiteSpace=wrap;html=1;" parent="Vt1gkLVaoosMy38-fnXn-20" vertex="1">
                    <mxGeometry x="30" width="150" height="30" as="geometry">
                        <mxRectangle width="150" height="30" as="alternateBounds"/>
                    </mxGeometry>
                </mxCell>
                <mxCell id="Vt1gkLVaoosMy38-fnXn-23" value="null |&amp;nbsp;number" style="shape=partialRectangle;connectable=0;fillColor=none;top=0;left=0;bottom=0;right=0;align=left;spacingLeft=6;overflow=hidden;whiteSpace=wrap;html=1;" parent="Vt1gkLVaoosMy38-fnXn-20" vertex="1">
                    <mxGeometry x="180" width="150" height="30" as="geometry">
                        <mxRectangle width="150" height="30" as="alternateBounds"/>
                    </mxGeometry>
                </mxCell>
                <mxCell id="Vt1gkLVaoosMy38-fnXn-24" style="shape=tableRow;horizontal=0;startSize=0;swimlaneHead=0;swimlaneBody=0;fillColor=none;collapsible=0;dropTarget=0;points=[[0,0.5],[1,0.5]];portConstraint=eastwest;top=0;left=0;right=0;bottom=0;" parent="wKV96D3HA0CmSMx8KGgX-1" vertex="1">
                    <mxGeometry y="300" width="330" height="30" as="geometry"/>
                </mxCell>
                <mxCell id="Vt1gkLVaoosMy38-fnXn-25" style="shape=partialRectangle;connectable=0;fillColor=none;top=0;left=0;bottom=0;right=0;editable=1;overflow=hidden;whiteSpace=wrap;html=1;" parent="Vt1gkLVaoosMy38-fnXn-24" vertex="1">
                    <mxGeometry width="30" height="30" as="geometry">
                        <mxRectangle width="30" height="30" as="alternateBounds"/>
                    </mxGeometry>
                </mxCell>
                <mxCell id="Vt1gkLVaoosMy38-fnXn-26" value="linked_at" style="shape=partialRectangle;connectable=0;fillColor=none;top=0;left=0;bottom=0;right=0;align=left;spacingLeft=6;overflow=hidden;whiteSpace=wrap;html=1;" parent="Vt1gkLVaoosMy38-fnXn-24" vertex="1">
                    <mxGeometry x="30" width="150" height="30" as="geometry">
                        <mxRectangle width="150" height="30" as="alternateBounds"/>
                    </mxGeometry>
                </mxCell>
                <mxCell id="Vt1gkLVaoosMy38-fnXn-27" value="null | number" style="shape=partialRectangle;connectable=0;fillColor=none;top=0;left=0;bottom=0;right=0;align=left;spacingLeft=6;overflow=hidden;whiteSpace=wrap;html=1;" parent="Vt1gkLVaoosMy38-fnXn-24" vertex="1">
                    <mxGeometry x="180" width="150" height="30" as="geometry">
                        <mxRectangle width="150" height="30" as="alternateBounds"/>
                    </mxGeometry>
                </mxCell>
                <object label="Account" type="'e' | 'p'" identifier="email | phone" is_verified="bool" is_loginable="bool" hashed_password="null | string" account_id="string" id="wKV96D3HA0CmSMx8KGgX-39">
                    <mxCell style="shape=table;startSize=30;container=1;collapsible=1;childLayout=tableLayout;fixedRows=1;rowLines=0;fontStyle=1;align=center;resizeLast=1;html=1;" parent="1" vertex="1">
                        <mxGeometry x="471" y="630" width="330" height="270" as="geometry">
                            <mxRectangle x="530" y="140" width="150" height="30" as="alternateBounds"/>
                        </mxGeometry>
                    </mxCell>
                </object>
                <mxCell id="wKV96D3HA0CmSMx8KGgX-40" value="" style="shape=tableRow;horizontal=0;startSize=0;swimlaneHead=0;swimlaneBody=0;fillColor=none;collapsible=0;dropTarget=0;points=[[0,0.5],[1,0.5]];portConstraint=eastwest;top=0;left=0;right=0;bottom=1;" parent="wKV96D3HA0CmSMx8KGgX-39" vertex="1">
                    <mxGeometry y="30" width="330" height="30" as="geometry"/>
                </mxCell>
                <mxCell id="wKV96D3HA0CmSMx8KGgX-41" value="PK" style="shape=partialRectangle;connectable=0;fillColor=none;top=0;left=0;bottom=0;right=0;fontStyle=1;overflow=hidden;whiteSpace=wrap;html=1;" parent="wKV96D3HA0CmSMx8KGgX-40" vertex="1">
                    <mxGeometry width="30" height="30" as="geometry">
                        <mxRectangle width="30" height="30" as="alternateBounds"/>
                    </mxGeometry>
                </mxCell>
                <mxCell id="wKV96D3HA0CmSMx8KGgX-42" value="id" style="shape=partialRectangle;connectable=0;fillColor=none;top=0;left=0;bottom=0;right=0;align=left;spacingLeft=6;fontStyle=5;overflow=hidden;whiteSpace=wrap;html=1;" parent="wKV96D3HA0CmSMx8KGgX-40" vertex="1">
                    <mxGeometry x="30" width="169" height="30" as="geometry">
                        <mxRectangle width="169" height="30" as="alternateBounds"/>
                    </mxGeometry>
                </mxCell>
                <mxCell id="wKV96D3HA0CmSMx8KGgX-43" value="sgtring" style="shape=partialRectangle;connectable=0;fillColor=none;top=0;left=0;bottom=0;right=0;align=left;spacingLeft=6;fontStyle=5;overflow=hidden;whiteSpace=wrap;html=1;" parent="wKV96D3HA0CmSMx8KGgX-40" vertex="1">
                    <mxGeometry x="199" width="131" height="30" as="geometry">
                        <mxRectangle width="131" height="30" as="alternateBounds"/>
                    </mxGeometry>
                </mxCell>
                <mxCell id="0XSst5NkghI0VEq9Ox-F-17" style="shape=tableRow;horizontal=0;startSize=0;swimlaneHead=0;swimlaneBody=0;fillColor=none;collapsible=0;dropTarget=0;points=[[0,0.5],[1,0.5]];portConstraint=eastwest;top=0;left=0;right=0;bottom=1;" parent="wKV96D3HA0CmSMx8KGgX-39" vertex="1">
                    <mxGeometry y="60" width="330" height="30" as="geometry"/>
                </mxCell>
                <mxCell id="0XSst5NkghI0VEq9Ox-F-18" value="FK?" style="shape=partialRectangle;connectable=0;fillColor=none;top=0;left=0;bottom=0;right=0;fontStyle=1;overflow=hidden;whiteSpace=wrap;html=1;" parent="0XSst5NkghI0VEq9Ox-F-17" vertex="1">
                    <mxGeometry width="30" height="30" as="geometry">
                        <mxRectangle width="30" height="30" as="alternateBounds"/>
                    </mxGeometry>
                </mxCell>
                <mxCell id="0XSst5NkghI0VEq9Ox-F-19" value="initial_verification_method" style="shape=partialRectangle;connectable=0;fillColor=none;top=0;left=0;bottom=0;right=0;align=left;spacingLeft=6;fontStyle=5;overflow=hidden;whiteSpace=wrap;html=1;" parent="0XSst5NkghI0VEq9Ox-F-17" vertex="1">
                    <mxGeometry x="30" width="169" height="30" as="geometry">
                        <mxRectangle width="169" height="30" as="alternateBounds"/>
                    </mxGeometry>
                </mxCell>
                <mxCell id="0XSst5NkghI0VEq9Ox-F-20" value="string" style="shape=partialRectangle;connectable=0;fillColor=none;top=0;left=0;bottom=0;right=0;align=left;spacingLeft=6;fontStyle=5;overflow=hidden;whiteSpace=wrap;html=1;" parent="0XSst5NkghI0VEq9Ox-F-17" vertex="1">
                    <mxGeometry x="199" width="131" height="30" as="geometry">
                        <mxRectangle width="131" height="30" as="alternateBounds"/>
                    </mxGeometry>
                </mxCell>
                <mxCell id="wKV96D3HA0CmSMx8KGgX-52" value="" style="shape=tableRow;horizontal=0;startSize=0;swimlaneHead=0;swimlaneBody=0;fillColor=none;collapsible=0;dropTarget=0;points=[[0,0.5],[1,0.5]];portConstraint=eastwest;top=0;left=0;right=0;bottom=0;" parent="wKV96D3HA0CmSMx8KGgX-39" vertex="1">
                    <mxGeometry y="90" width="330" height="30" as="geometry"/>
                </mxCell>
                <mxCell id="wKV96D3HA0CmSMx8KGgX-53" value="" style="shape=partialRectangle;connectable=0;fillColor=none;top=0;left=0;bottom=0;right=0;editable=1;overflow=hidden;whiteSpace=wrap;html=1;" parent="wKV96D3HA0CmSMx8KGgX-52" vertex="1">
                    <mxGeometry width="30" height="30" as="geometry">
                        <mxRectangle width="30" height="30" as="alternateBounds"/>
                    </mxGeometry>
                </mxCell>
                <mxCell id="wKV96D3HA0CmSMx8KGgX-54" value="name" style="shape=partialRectangle;connectable=0;fillColor=none;top=0;left=0;bottom=0;right=0;align=left;spacingLeft=6;overflow=hidden;whiteSpace=wrap;html=1;" parent="wKV96D3HA0CmSMx8KGgX-52" vertex="1">
                    <mxGeometry x="30" width="169" height="30" as="geometry">
                        <mxRectangle width="169" height="30" as="alternateBounds"/>
                    </mxGeometry>
                </mxCell>
                <mxCell id="wKV96D3HA0CmSMx8KGgX-55" value="string" style="shape=partialRectangle;connectable=0;fillColor=none;top=0;left=0;bottom=0;right=0;align=left;spacingLeft=6;overflow=hidden;whiteSpace=wrap;html=1;" parent="wKV96D3HA0CmSMx8KGgX-52" vertex="1">
                    <mxGeometry x="199" width="131" height="30" as="geometry">
                        <mxRectangle width="131" height="30" as="alternateBounds"/>
                    </mxGeometry>
                </mxCell>
                <mxCell id="wKV96D3HA0CmSMx8KGgX-56" value="" style="shape=tableRow;horizontal=0;startSize=0;swimlaneHead=0;swimlaneBody=0;fillColor=none;collapsible=0;dropTarget=0;points=[[0,0.5],[1,0.5]];portConstraint=eastwest;top=0;left=0;right=0;bottom=0;" parent="wKV96D3HA0CmSMx8KGgX-39" vertex="1">
                    <mxGeometry y="120" width="330" height="30" as="geometry"/>
                </mxCell>
                <mxCell id="wKV96D3HA0CmSMx8KGgX-57" value="" style="shape=partialRectangle;connectable=0;fillColor=none;top=0;left=0;bottom=0;right=0;editable=1;overflow=hidden;whiteSpace=wrap;html=1;" parent="wKV96D3HA0CmSMx8KGgX-56" vertex="1">
                    <mxGeometry width="30" height="30" as="geometry">
                        <mxRectangle width="30" height="30" as="alternateBounds"/>
                    </mxGeometry>
                </mxCell>
                <mxCell id="wKV96D3HA0CmSMx8KGgX-58" value="image_url" style="shape=partialRectangle;connectable=0;fillColor=none;top=0;left=0;bottom=0;right=0;align=left;spacingLeft=6;overflow=hidden;whiteSpace=wrap;html=1;" parent="wKV96D3HA0CmSMx8KGgX-56" vertex="1">
                    <mxGeometry x="30" width="169" height="30" as="geometry">
                        <mxRectangle width="169" height="30" as="alternateBounds"/>
                    </mxGeometry>
                </mxCell>
                <mxCell id="wKV96D3HA0CmSMx8KGgX-59" value="string" style="shape=partialRectangle;connectable=0;fillColor=none;top=0;left=0;bottom=0;right=0;align=left;spacingLeft=6;overflow=hidden;whiteSpace=wrap;html=1;" parent="wKV96D3HA0CmSMx8KGgX-56" vertex="1">
                    <mxGeometry x="199" width="131" height="30" as="geometry">
                        <mxRectangle width="131" height="30" as="alternateBounds"/>
                    </mxGeometry>
                </mxCell>
                <mxCell id="0XSst5NkghI0VEq9Ox-F-9" style="shape=tableRow;horizontal=0;startSize=0;swimlaneHead=0;swimlaneBody=0;fillColor=none;collapsible=0;dropTarget=0;points=[[0,0.5],[1,0.5]];portConstraint=eastwest;top=0;left=0;right=0;bottom=0;" parent="wKV96D3HA0CmSMx8KGgX-39" vertex="1">
                    <mxGeometry y="150" width="330" height="30" as="geometry"/>
                </mxCell>
                <mxCell id="0XSst5NkghI0VEq9Ox-F-10" style="shape=partialRectangle;connectable=0;fillColor=none;top=0;left=0;bottom=0;right=0;editable=1;overflow=hidden;whiteSpace=wrap;html=1;" parent="0XSst5NkghI0VEq9Ox-F-9" vertex="1">
                    <mxGeometry width="30" height="30" as="geometry">
                        <mxRectangle width="30" height="30" as="alternateBounds"/>
                    </mxGeometry>
                </mxCell>
                <mxCell id="0XSst5NkghI0VEq9Ox-F-11" value="created_at" style="shape=partialRectangle;connectable=0;fillColor=none;top=0;left=0;bottom=0;right=0;align=left;spacingLeft=6;overflow=hidden;whiteSpace=wrap;html=1;" parent="0XSst5NkghI0VEq9Ox-F-9" vertex="1">
                    <mxGeometry x="30" width="169" height="30" as="geometry">
                        <mxRectangle width="169" height="30" as="alternateBounds"/>
                    </mxGeometry>
                </mxCell>
                <mxCell id="0XSst5NkghI0VEq9Ox-F-12" value="number" style="shape=partialRectangle;connectable=0;fillColor=none;top=0;left=0;bottom=0;right=0;align=left;spacingLeft=6;overflow=hidden;whiteSpace=wrap;html=1;" parent="0XSst5NkghI0VEq9Ox-F-9" vertex="1">
                    <mxGeometry x="199" width="131" height="30" as="geometry">
                        <mxRectangle width="131" height="30" as="alternateBounds"/>
                    </mxGeometry>
                </mxCell>
                <mxCell id="wKV96D3HA0CmSMx8KGgX-60" value="" style="shape=tableRow;horizontal=0;startSize=0;swimlaneHead=0;swimlaneBody=0;fillColor=none;collapsible=0;dropTarget=0;points=[[0,0.5],[1,0.5]];portConstraint=eastwest;top=0;left=0;right=0;bottom=0;" parent="wKV96D3HA0CmSMx8KGgX-39" vertex="1">
                    <mxGeometry y="180" width="330" height="30" as="geometry"/>
                </mxCell>
                <mxCell id="wKV96D3HA0CmSMx8KGgX-61" value="" style="shape=partialRectangle;connectable=0;fillColor=none;top=0;left=0;bottom=0;right=0;editable=1;overflow=hidden;whiteSpace=wrap;html=1;" parent="wKV96D3HA0CmSMx8KGgX-60" vertex="1">
                    <mxGeometry width="30" height="30" as="geometry">
                        <mxRectangle width="30" height="30" as="alternateBounds"/>
                    </mxGeometry>
                </mxCell>
                <mxCell id="wKV96D3HA0CmSMx8KGgX-62" value="." style="shape=partialRectangle;connectable=0;fillColor=none;top=0;left=0;bottom=0;right=0;align=left;spacingLeft=6;overflow=hidden;whiteSpace=wrap;html=1;" parent="wKV96D3HA0CmSMx8KGgX-60" vertex="1">
                    <mxGeometry x="30" width="169" height="30" as="geometry">
                        <mxRectangle width="169" height="30" as="alternateBounds"/>
                    </mxGeometry>
                </mxCell>
                <mxCell id="wKV96D3HA0CmSMx8KGgX-63" value="." style="shape=partialRectangle;connectable=0;fillColor=none;top=0;left=0;bottom=0;right=0;align=left;spacingLeft=6;overflow=hidden;whiteSpace=wrap;html=1;" parent="wKV96D3HA0CmSMx8KGgX-60" vertex="1">
                    <mxGeometry x="199" width="131" height="30" as="geometry">
                        <mxRectangle width="131" height="30" as="alternateBounds"/>
                    </mxGeometry>
                </mxCell>
                <mxCell id="wKV96D3HA0CmSMx8KGgX-64" value="" style="shape=tableRow;horizontal=0;startSize=0;swimlaneHead=0;swimlaneBody=0;fillColor=none;collapsible=0;dropTarget=0;points=[[0,0.5],[1,0.5]];portConstraint=eastwest;top=0;left=0;right=0;bottom=0;" parent="wKV96D3HA0CmSMx8KGgX-39" vertex="1">
                    <mxGeometry y="210" width="330" height="30" as="geometry"/>
                </mxCell>
                <mxCell id="wKV96D3HA0CmSMx8KGgX-65" value="" style="shape=partialRectangle;connectable=0;fillColor=none;top=0;left=0;bottom=0;right=0;editable=1;overflow=hidden;whiteSpace=wrap;html=1;" parent="wKV96D3HA0CmSMx8KGgX-64" vertex="1">
                    <mxGeometry width="30" height="30" as="geometry">
                        <mxRectangle width="30" height="30" as="alternateBounds"/>
                    </mxGeometry>
                </mxCell>
                <mxCell id="wKV96D3HA0CmSMx8KGgX-66" value="...user_data" style="shape=partialRectangle;connectable=0;fillColor=none;top=0;left=0;bottom=0;right=0;align=left;spacingLeft=6;overflow=hidden;whiteSpace=wrap;html=1;" parent="wKV96D3HA0CmSMx8KGgX-64" vertex="1">
                    <mxGeometry x="30" width="169" height="30" as="geometry">
                        <mxRectangle width="169" height="30" as="alternateBounds"/>
                    </mxGeometry>
                </mxCell>
                <mxCell id="wKV96D3HA0CmSMx8KGgX-67" value="...data_types" style="shape=partialRectangle;connectable=0;fillColor=none;top=0;left=0;bottom=0;right=0;align=left;spacingLeft=6;overflow=hidden;whiteSpace=wrap;html=1;" parent="wKV96D3HA0CmSMx8KGgX-64" vertex="1">
                    <mxGeometry x="199" width="131" height="30" as="geometry">
                        <mxRectangle width="131" height="30" as="alternateBounds"/>
                    </mxGeometry>
                </mxCell>
                <mxCell id="MDaI-EYoQhKzvCaFtTz6-3" style="shape=tableRow;horizontal=0;startSize=0;swimlaneHead=0;swimlaneBody=0;fillColor=none;collapsible=0;dropTarget=0;points=[[0,0.5],[1,0.5]];portConstraint=eastwest;top=0;left=0;right=0;bottom=0;" parent="wKV96D3HA0CmSMx8KGgX-39" vertex="1">
                    <mxGeometry y="240" width="330" height="30" as="geometry"/>
                </mxCell>
                <mxCell id="MDaI-EYoQhKzvCaFtTz6-4" style="shape=partialRectangle;connectable=0;fillColor=none;top=0;left=0;bottom=0;right=0;editable=1;overflow=hidden;whiteSpace=wrap;html=1;" parent="MDaI-EYoQhKzvCaFtTz6-3" vertex="1">
                    <mxGeometry width="30" height="30" as="geometry">
                        <mxRectangle width="30" height="30" as="alternateBounds"/>
                    </mxGeometry>
                </mxCell>
                <mxCell id="MDaI-EYoQhKzvCaFtTz6-5" value="is_active" style="shape=partialRectangle;connectable=0;fillColor=none;top=0;left=0;bottom=0;right=0;align=left;spacingLeft=6;overflow=hidden;whiteSpace=wrap;html=1;" parent="MDaI-EYoQhKzvCaFtTz6-3" vertex="1">
                    <mxGeometry x="30" width="169" height="30" as="geometry">
                        <mxRectangle width="169" height="30" as="alternateBounds"/>
                    </mxGeometry>
                </mxCell>
                <mxCell id="MDaI-EYoQhKzvCaFtTz6-6" value="bool" style="shape=partialRectangle;connectable=0;fillColor=none;top=0;left=0;bottom=0;right=0;align=left;spacingLeft=6;overflow=hidden;whiteSpace=wrap;html=1;" parent="MDaI-EYoQhKzvCaFtTz6-3" vertex="1">
                    <mxGeometry x="199" width="131" height="30" as="geometry">
                        <mxRectangle width="131" height="30" as="alternateBounds"/>
                    </mxGeometry>
                </mxCell>
                <mxCell id="Vt1gkLVaoosMy38-fnXn-1" value="created_at" style="ellipse;whiteSpace=wrap;html=1;align=center;" parent="1" vertex="1">
                    <mxGeometry x="-313.5" y="303" width="100" height="40" as="geometry"/>
                </mxCell>
                <mxCell id="Vt1gkLVaoosMy38-fnXn-2" value="verified_at?" style="ellipse;whiteSpace=wrap;html=1;align=center;" parent="1" vertex="1">
                    <mxGeometry x="-406" y="380" width="100" height="40" as="geometry"/>
                </mxCell>
                <mxCell id="Vt1gkLVaoosMy38-fnXn-3" value="linked_at?" style="ellipse;whiteSpace=wrap;html=1;align=center;" parent="1" vertex="1">
                    <mxGeometry x="-226.5" y="430" width="100" height="40" as="geometry"/>
                </mxCell>
                <mxCell id="Vt1gkLVaoosMy38-fnXn-4" style="edgeStyle=orthogonalEdgeStyle;rounded=0;orthogonalLoop=1;jettySize=auto;html=1;exitX=0.5;exitY=1;exitDx=0;exitDy=0;" parent="1" source="o5zWqy-yZP3sflRj8p0Q-4" target="o5zWqy-yZP3sflRj8p0Q-4" edge="1">
                    <mxGeometry relative="1" as="geometry"/>
                </mxCell>
                <mxCell id="Vt1gkLVaoosMy38-fnXn-9" value="" style="endArrow=none;html=1;rounded=0;exitX=0.752;exitY=0.93;exitDx=0;exitDy=0;entryX=0.25;entryY=0;entryDx=0;entryDy=0;exitPerimeter=0;" parent="1" source="Vt1gkLVaoosMy38-fnXn-1" target="o5zWqy-yZP3sflRj8p0Q-1" edge="1">
                    <mxGeometry width="50" height="50" relative="1" as="geometry">
                        <mxPoint x="-326.5" y="460" as="sourcePoint"/>
                        <mxPoint x="-432.5" y="502" as="targetPoint"/>
                    </mxGeometry>
                </mxCell>
                <mxCell id="Vt1gkLVaoosMy38-fnXn-10" value="" style="endArrow=none;html=1;rounded=0;exitX=0;exitY=0.5;exitDx=0;exitDy=0;entryX=1;entryY=0.5;entryDx=0;entryDy=0;" parent="1" source="o5zWqy-yZP3sflRj8p0Q-1" target="Vt1gkLVaoosMy38-fnXn-2" edge="1">
                    <mxGeometry width="50" height="50" relative="1" as="geometry">
                        <mxPoint x="-316.5" y="470" as="sourcePoint"/>
                        <mxPoint x="-422.5" y="512" as="targetPoint"/>
                    </mxGeometry>
                </mxCell>
                <mxCell id="Vt1gkLVaoosMy38-fnXn-11" value="" style="endArrow=none;html=1;rounded=0;exitX=1;exitY=0;exitDx=0;exitDy=0;entryX=0.75;entryY=1;entryDx=0;entryDy=0;" parent="1" source="Vt1gkLVaoosMy38-fnXn-3" target="o5zWqy-yZP3sflRj8p0Q-1" edge="1">
                    <mxGeometry width="50" height="50" relative="1" as="geometry">
                        <mxPoint x="-308.5" y="478" as="sourcePoint"/>
                        <mxPoint x="-414.5" y="520" as="targetPoint"/>
                    </mxGeometry>
                </mxCell>
                <mxCell id="0XSst5NkghI0VEq9Ox-F-1" value="initial_verification_method" style="ellipse;whiteSpace=wrap;html=1;align=center;" parent="1" vertex="1">
                    <mxGeometry x="-6.5" y="641" width="152" height="40" as="geometry"/>
                </mxCell>
                <mxCell id="0XSst5NkghI0VEq9Ox-F-2" value="created_at" style="ellipse;whiteSpace=wrap;html=1;align=center;" parent="1" vertex="1">
                    <mxGeometry x="166.5" y="480" width="100" height="40" as="geometry"/>
                </mxCell>
                <mxCell id="0XSst5NkghI0VEq9Ox-F-7" value="" style="endArrow=none;html=1;rounded=0;exitX=0;exitY=1;exitDx=0;exitDy=0;entryX=1;entryY=0;entryDx=0;entryDy=0;" parent="1" source="o5zWqy-yZP3sflRj8p0Q-21" target="0XSst5NkghI0VEq9Ox-F-1" edge="1">
                    <mxGeometry width="50" height="50" relative="1" as="geometry">
                        <mxPoint x="142.3" y="414.59000000000003" as="sourcePoint"/>
                        <mxPoint x="146.5" y="640" as="targetPoint"/>
                    </mxGeometry>
                </mxCell>
                <mxCell id="0XSst5NkghI0VEq9Ox-F-8" value="" style="endArrow=none;html=1;rounded=0;exitX=0.5;exitY=1;exitDx=0;exitDy=0;entryX=0.5;entryY=0;entryDx=0;entryDy=0;" parent="1" source="0XSst5NkghI0VEq9Ox-F-2" target="o5zWqy-yZP3sflRj8p0Q-21" edge="1">
                    <mxGeometry width="50" height="50" relative="1" as="geometry">
                        <mxPoint x="156.5" y="430" as="sourcePoint"/>
                        <mxPoint x="60.500000000000014" y="495" as="targetPoint"/>
                    </mxGeometry>
                </mxCell>
                <mxCell id="Kjet4BSMFHoBCxyEnkaE-1" value="Verification Secret" style="whiteSpace=wrap;html=1;align=center;" parent="1" vertex="1">
                    <mxGeometry x="178" y="150" width="151" height="70" as="geometry"/>
                </mxCell>
                <mxCell id="Kjet4BSMFHoBCxyEnkaE-3" value="secret" style="ellipse;whiteSpace=wrap;html=1;align=center;" parent="1" vertex="1">
                    <mxGeometry x="32" y="150" width="100" height="40" as="geometry"/>
                </mxCell>
                <mxCell id="Kjet4BSMFHoBCxyEnkaE-5" value="created_at" style="ellipse;whiteSpace=wrap;html=1;align=center;" parent="1" vertex="1">
                    <mxGeometry x="213" y="90" width="100" height="40" as="geometry"/>
                </mxCell>
                <mxCell id="Kjet4BSMFHoBCxyEnkaE-7" value="" style="endArrow=none;html=1;rounded=0;entryX=1;entryY=0.5;entryDx=0;entryDy=0;exitX=0;exitY=0.5;exitDx=0;exitDy=0;" parent="1" source="Kjet4BSMFHoBCxyEnkaE-1" target="Kjet4BSMFHoBCxyEnkaE-3" edge="1">
                    <mxGeometry width="50" height="50" relative="1" as="geometry">
                        <mxPoint x="484" y="140" as="sourcePoint"/>
                        <mxPoint x="343" y="40" as="targetPoint"/>
                    </mxGeometry>
                </mxCell>
                <mxCell id="Kjet4BSMFHoBCxyEnkaE-9" value="" style="endArrow=none;html=1;rounded=0;entryX=0.5;entryY=1;entryDx=0;entryDy=0;exitX=0.5;exitY=0;exitDx=0;exitDy=0;" parent="1" source="Kjet4BSMFHoBCxyEnkaE-1" target="Kjet4BSMFHoBCxyEnkaE-5" edge="1">
                    <mxGeometry width="50" height="50" relative="1" as="geometry">
                        <mxPoint x="445" y="170" as="sourcePoint"/>
                        <mxPoint x="304" y="70" as="targetPoint"/>
                    </mxGeometry>
                </mxCell>
                <mxCell id="Kjet4BSMFHoBCxyEnkaE-10" value="" style="endArrow=none;html=1;rounded=0;entryX=0.5;entryY=1;entryDx=0;entryDy=0;exitX=0;exitY=0;exitDx=0;exitDy=0;" parent="1" source="Kjet4BSMFHoBCxyEnkaE-1" target="Kjet4BSMFHoBCxyEnkaE-11" edge="1">
                    <mxGeometry width="50" height="50" relative="1" as="geometry">
                        <mxPoint x="509" y="235" as="sourcePoint"/>
                        <mxPoint x="368" y="135" as="targetPoint"/>
                    </mxGeometry>
                </mxCell>
                <mxCell id="Kjet4BSMFHoBCxyEnkaE-11" value="id" style="ellipse;whiteSpace=wrap;html=1;align=center;fontStyle=4;" parent="1" vertex="1">
                    <mxGeometry x="89" y="100" width="100" height="40" as="geometry"/>
                </mxCell>
                <mxCell id="Kjet4BSMFHoBCxyEnkaE-12" value="has" style="shape=rhombus;perimeter=rhombusPerimeter;whiteSpace=wrap;html=1;align=center;" parent="1" vertex="1">
                    <mxGeometry x="-88" y="255" width="120" height="60" as="geometry"/>
                </mxCell>
                <mxCell id="Kjet4BSMFHoBCxyEnkaE-13" value="" style="edgeStyle=entityRelationEdgeStyle;fontSize=12;html=1;endArrow=ERone;endFill=1;rounded=0;exitX=0.5;exitY=1;exitDx=0;exitDy=0;entryX=1;entryY=0.25;entryDx=0;entryDy=0;" parent="1" source="Kjet4BSMFHoBCxyEnkaE-12" target="o5zWqy-yZP3sflRj8p0Q-1" edge="1">
                    <mxGeometry width="100" height="100" relative="1" as="geometry">
                        <mxPoint x="130" y="300" as="sourcePoint"/>
                        <mxPoint x="230" y="200" as="targetPoint"/>
                        <Array as="points">
                            <mxPoint x="440" y="280"/>
                        </Array>
                    </mxGeometry>
                </mxCell>
                <mxCell id="Kjet4BSMFHoBCxyEnkaE-14" value="" style="edgeStyle=entityRelationEdgeStyle;fontSize=12;html=1;endArrow=ERmany;rounded=0;entryX=0;entryY=0.75;entryDx=0;entryDy=0;exitX=0.5;exitY=0;exitDx=0;exitDy=0;" parent="1" source="Kjet4BSMFHoBCxyEnkaE-12" target="Kjet4BSMFHoBCxyEnkaE-1" edge="1">
                    <mxGeometry width="100" height="100" relative="1" as="geometry">
                        <mxPoint x="310" y="220" as="sourcePoint"/>
                        <mxPoint x="410" y="120" as="targetPoint"/>
                        <Array as="points">
                            <mxPoint x="390" y="150"/>
                            <mxPoint x="320" y="150"/>
                        </Array>
                    </mxGeometry>
                </mxCell>
                <object label="Verification Secret" type="'e' | 'p'" identifier="email | phone" is_verified="bool" is_loginable="bool" hashed_password="null | string" account_id="string" id="Kjet4BSMFHoBCxyEnkaE-17">
                    <mxCell style="shape=table;startSize=30;container=1;collapsible=1;childLayout=tableLayout;fixedRows=1;rowLines=0;fontStyle=1;align=center;resizeLast=1;html=1;" parent="1" vertex="1">
                        <mxGeometry x="475" y="17" width="330" height="210" as="geometry">
                            <mxRectangle x="530" y="140" width="150" height="30" as="alternateBounds"/>
                        </mxGeometry>
                    </mxCell>
                </object>
                <mxCell id="Kjet4BSMFHoBCxyEnkaE-18" value="" style="shape=tableRow;horizontal=0;startSize=0;swimlaneHead=0;swimlaneBody=0;fillColor=none;collapsible=0;dropTarget=0;points=[[0,0.5],[1,0.5]];portConstraint=eastwest;top=0;left=0;right=0;bottom=1;" parent="Kjet4BSMFHoBCxyEnkaE-17" vertex="1">
                    <mxGeometry y="30" width="330" height="30" as="geometry"/>
                </mxCell>
                <mxCell id="Kjet4BSMFHoBCxyEnkaE-19" value="PK" style="shape=partialRectangle;connectable=0;fillColor=none;top=0;left=0;bottom=0;right=0;fontStyle=1;overflow=hidden;whiteSpace=wrap;html=1;" parent="Kjet4BSMFHoBCxyEnkaE-18" vertex="1">
                    <mxGeometry width="30" height="30" as="geometry">
                        <mxRectangle width="30" height="30" as="alternateBounds"/>
                    </mxGeometry>
                </mxCell>
                <mxCell id="Kjet4BSMFHoBCxyEnkaE-20" value="id" style="shape=partialRectangle;connectable=0;fillColor=none;top=0;left=0;bottom=0;right=0;align=left;spacingLeft=6;fontStyle=5;overflow=hidden;whiteSpace=wrap;html=1;" parent="Kjet4BSMFHoBCxyEnkaE-18" vertex="1">
                    <mxGeometry x="30" width="169" height="30" as="geometry">
                        <mxRectangle width="169" height="30" as="alternateBounds"/>
                    </mxGeometry>
                </mxCell>
                <mxCell id="Kjet4BSMFHoBCxyEnkaE-21" value="sgtring" style="shape=partialRectangle;connectable=0;fillColor=none;top=0;left=0;bottom=0;right=0;align=left;spacingLeft=6;fontStyle=5;overflow=hidden;whiteSpace=wrap;html=1;" parent="Kjet4BSMFHoBCxyEnkaE-18" vertex="1">
                    <mxGeometry x="199" width="131" height="30" as="geometry">
                        <mxRectangle width="131" height="30" as="alternateBounds"/>
                    </mxGeometry>
                </mxCell>
                <mxCell id="Kjet4BSMFHoBCxyEnkaE-22" style="shape=tableRow;horizontal=0;startSize=0;swimlaneHead=0;swimlaneBody=0;fillColor=none;collapsible=0;dropTarget=0;points=[[0,0.5],[1,0.5]];portConstraint=eastwest;top=0;left=0;right=0;bottom=1;" parent="Kjet4BSMFHoBCxyEnkaE-17" vertex="1">
                    <mxGeometry y="60" width="330" height="30" as="geometry"/>
                </mxCell>
                <mxCell id="Kjet4BSMFHoBCxyEnkaE-23" value="FK" style="shape=partialRectangle;connectable=0;fillColor=none;top=0;left=0;bottom=0;right=0;fontStyle=1;overflow=hidden;whiteSpace=wrap;html=1;" parent="Kjet4BSMFHoBCxyEnkaE-22" vertex="1">
                    <mxGeometry width="30" height="30" as="geometry">
                        <mxRectangle width="30" height="30" as="alternateBounds"/>
                    </mxGeometry>
                </mxCell>
                <mxCell id="Kjet4BSMFHoBCxyEnkaE-24" value="identifier&amp;nbsp;" style="shape=partialRectangle;connectable=0;fillColor=none;top=0;left=0;bottom=0;right=0;align=left;spacingLeft=6;fontStyle=5;overflow=hidden;whiteSpace=wrap;html=1;" parent="Kjet4BSMFHoBCxyEnkaE-22" vertex="1">
                    <mxGeometry x="30" width="169" height="30" as="geometry">
                        <mxRectangle width="169" height="30" as="alternateBounds"/>
                    </mxGeometry>
                </mxCell>
                <mxCell id="Kjet4BSMFHoBCxyEnkaE-25" value="string" style="shape=partialRectangle;connectable=0;fillColor=none;top=0;left=0;bottom=0;right=0;align=left;spacingLeft=6;fontStyle=5;overflow=hidden;whiteSpace=wrap;html=1;" parent="Kjet4BSMFHoBCxyEnkaE-22" vertex="1">
                    <mxGeometry x="199" width="131" height="30" as="geometry">
                        <mxRectangle width="131" height="30" as="alternateBounds"/>
                    </mxGeometry>
                </mxCell>
                <mxCell id="Kjet4BSMFHoBCxyEnkaE-26" value="" style="shape=tableRow;horizontal=0;startSize=0;swimlaneHead=0;swimlaneBody=0;fillColor=none;collapsible=0;dropTarget=0;points=[[0,0.5],[1,0.5]];portConstraint=eastwest;top=0;left=0;right=0;bottom=0;" parent="Kjet4BSMFHoBCxyEnkaE-17" vertex="1">
                    <mxGeometry y="90" width="330" height="30" as="geometry"/>
                </mxCell>
                <mxCell id="Kjet4BSMFHoBCxyEnkaE-27" value="" style="shape=partialRectangle;connectable=0;fillColor=none;top=0;left=0;bottom=0;right=0;editable=1;overflow=hidden;whiteSpace=wrap;html=1;" parent="Kjet4BSMFHoBCxyEnkaE-26" vertex="1">
                    <mxGeometry width="30" height="30" as="geometry">
                        <mxRectangle width="30" height="30" as="alternateBounds"/>
                    </mxGeometry>
                </mxCell>
                <mxCell id="Kjet4BSMFHoBCxyEnkaE-28" value="secret" style="shape=partialRectangle;connectable=0;fillColor=none;top=0;left=0;bottom=0;right=0;align=left;spacingLeft=6;overflow=hidden;whiteSpace=wrap;html=1;" parent="Kjet4BSMFHoBCxyEnkaE-26" vertex="1">
                    <mxGeometry x="30" width="169" height="30" as="geometry">
                        <mxRectangle width="169" height="30" as="alternateBounds"/>
                    </mxGeometry>
                </mxCell>
                <mxCell id="Kjet4BSMFHoBCxyEnkaE-29" value="string" style="shape=partialRectangle;connectable=0;fillColor=none;top=0;left=0;bottom=0;right=0;align=left;spacingLeft=6;overflow=hidden;whiteSpace=wrap;html=1;" parent="Kjet4BSMFHoBCxyEnkaE-26" vertex="1">
                    <mxGeometry x="199" width="131" height="30" as="geometry">
                        <mxRectangle width="131" height="30" as="alternateBounds"/>
                    </mxGeometry>
                </mxCell>
                <mxCell id="Kjet4BSMFHoBCxyEnkaE-34" style="shape=tableRow;horizontal=0;startSize=0;swimlaneHead=0;swimlaneBody=0;fillColor=none;collapsible=0;dropTarget=0;points=[[0,0.5],[1,0.5]];portConstraint=eastwest;top=0;left=0;right=0;bottom=0;" parent="Kjet4BSMFHoBCxyEnkaE-17" vertex="1">
                    <mxGeometry y="120" width="330" height="30" as="geometry"/>
                </mxCell>
                <mxCell id="Kjet4BSMFHoBCxyEnkaE-35" style="shape=partialRectangle;connectable=0;fillColor=none;top=0;left=0;bottom=0;right=0;editable=1;overflow=hidden;whiteSpace=wrap;html=1;" parent="Kjet4BSMFHoBCxyEnkaE-34" vertex="1">
                    <mxGeometry width="30" height="30" as="geometry">
                        <mxRectangle width="30" height="30" as="alternateBounds"/>
                    </mxGeometry>
                </mxCell>
                <mxCell id="Kjet4BSMFHoBCxyEnkaE-36" value="created_at" style="shape=partialRectangle;connectable=0;fillColor=none;top=0;left=0;bottom=0;right=0;align=left;spacingLeft=6;overflow=hidden;whiteSpace=wrap;html=1;" parent="Kjet4BSMFHoBCxyEnkaE-34" vertex="1">
                    <mxGeometry x="30" width="169" height="30" as="geometry">
                        <mxRectangle width="169" height="30" as="alternateBounds"/>
                    </mxGeometry>
                </mxCell>
                <mxCell id="Kjet4BSMFHoBCxyEnkaE-37" value="number" style="shape=partialRectangle;connectable=0;fillColor=none;top=0;left=0;bottom=0;right=0;align=left;spacingLeft=6;overflow=hidden;whiteSpace=wrap;html=1;" parent="Kjet4BSMFHoBCxyEnkaE-34" vertex="1">
                    <mxGeometry x="199" width="131" height="30" as="geometry">
                        <mxRectangle width="131" height="30" as="alternateBounds"/>
                    </mxGeometry>
                </mxCell>
                <mxCell id="fZNtqIoYwdhj9A0YINBr-7" style="shape=tableRow;horizontal=0;startSize=0;swimlaneHead=0;swimlaneBody=0;fillColor=none;collapsible=0;dropTarget=0;points=[[0,0.5],[1,0.5]];portConstraint=eastwest;top=0;left=0;right=0;bottom=0;" parent="Kjet4BSMFHoBCxyEnkaE-17" vertex="1">
                    <mxGeometry y="150" width="330" height="30" as="geometry"/>
                </mxCell>
                <mxCell id="fZNtqIoYwdhj9A0YINBr-8" style="shape=partialRectangle;connectable=0;fillColor=none;top=0;left=0;bottom=0;right=0;editable=1;overflow=hidden;whiteSpace=wrap;html=1;" parent="fZNtqIoYwdhj9A0YINBr-7" vertex="1">
                    <mxGeometry width="30" height="30" as="geometry">
                        <mxRectangle width="30" height="30" as="alternateBounds"/>
                    </mxGeometry>
                </mxCell>
                <mxCell id="fZNtqIoYwdhj9A0YINBr-9" value="type" style="shape=partialRectangle;connectable=0;fillColor=none;top=0;left=0;bottom=0;right=0;align=left;spacingLeft=6;overflow=hidden;whiteSpace=wrap;html=1;" parent="fZNtqIoYwdhj9A0YINBr-7" vertex="1">
                    <mxGeometry x="30" width="169" height="30" as="geometry">
                        <mxRectangle width="169" height="30" as="alternateBounds"/>
                    </mxGeometry>
                </mxCell>
                <mxCell id="fZNtqIoYwdhj9A0YINBr-10" value="string" style="shape=partialRectangle;connectable=0;fillColor=none;top=0;left=0;bottom=0;right=0;align=left;spacingLeft=6;overflow=hidden;whiteSpace=wrap;html=1;" parent="fZNtqIoYwdhj9A0YINBr-7" vertex="1">
                    <mxGeometry x="199" width="131" height="30" as="geometry">
                        <mxRectangle width="131" height="30" as="alternateBounds"/>
                    </mxGeometry>
                </mxCell>
                <mxCell id="fZNtqIoYwdhj9A0YINBr-11" style="shape=tableRow;horizontal=0;startSize=0;swimlaneHead=0;swimlaneBody=0;fillColor=none;collapsible=0;dropTarget=0;points=[[0,0.5],[1,0.5]];portConstraint=eastwest;top=0;left=0;right=0;bottom=0;" parent="Kjet4BSMFHoBCxyEnkaE-17" vertex="1">
                    <mxGeometry y="180" width="330" height="30" as="geometry"/>
                </mxCell>
                <mxCell id="fZNtqIoYwdhj9A0YINBr-12" style="shape=partialRectangle;connectable=0;fillColor=none;top=0;left=0;bottom=0;right=0;editable=1;overflow=hidden;whiteSpace=wrap;html=1;" parent="fZNtqIoYwdhj9A0YINBr-11" vertex="1">
                    <mxGeometry width="30" height="30" as="geometry">
                        <mxRectangle width="30" height="30" as="alternateBounds"/>
                    </mxGeometry>
                </mxCell>
                <mxCell id="fZNtqIoYwdhj9A0YINBr-13" value="payload" style="shape=partialRectangle;connectable=0;fillColor=none;top=0;left=0;bottom=0;right=0;align=left;spacingLeft=6;overflow=hidden;whiteSpace=wrap;html=1;" parent="fZNtqIoYwdhj9A0YINBr-11" vertex="1">
                    <mxGeometry x="30" width="169" height="30" as="geometry">
                        <mxRectangle width="169" height="30" as="alternateBounds"/>
                    </mxGeometry>
                </mxCell>
                <mxCell id="fZNtqIoYwdhj9A0YINBr-14" value="object | null" style="shape=partialRectangle;connectable=0;fillColor=none;top=0;left=0;bottom=0;right=0;align=left;spacingLeft=6;overflow=hidden;whiteSpace=wrap;html=1;" parent="fZNtqIoYwdhj9A0YINBr-11" vertex="1">
                    <mxGeometry x="199" width="131" height="30" as="geometry">
                        <mxRectangle width="131" height="30" as="alternateBounds"/>
                    </mxGeometry>
                </mxCell>
                <mxCell id="tarNjwpaYG9mAWBiZ6xl-1" value="&lt;div&gt;Security Question&lt;/div&gt;" style="ellipse;shape=doubleEllipse;margin=3;whiteSpace=wrap;html=1;align=center;" parent="1" vertex="1">
                    <mxGeometry x="181.5" y="731" width="100" height="40" as="geometry"/>
                </mxCell>
                <mxCell id="tarNjwpaYG9mAWBiZ6xl-6" value="" style="endArrow=none;html=1;rounded=0;exitX=0.5;exitY=1;exitDx=0;exitDy=0;entryX=0.5;entryY=0;entryDx=0;entryDy=0;" parent="1" source="o5zWqy-yZP3sflRj8p0Q-21" target="tarNjwpaYG9mAWBiZ6xl-1" edge="1">
                    <mxGeometry width="50" height="50" relative="1" as="geometry">
                        <mxPoint x="260.5" y="652" as="sourcePoint"/>
                        <mxPoint x="227.20794530077615" y="679.8494036333285" as="targetPoint"/>
                    </mxGeometry>
                </mxCell>
                <mxCell id="fZNtqIoYwdhj9A0YINBr-2" value="type" style="ellipse;whiteSpace=wrap;html=1;align=center;" parent="1" vertex="1">
                    <mxGeometry x="332" y="90" width="100" height="40" as="geometry"/>
                </mxCell>
                <mxCell id="fZNtqIoYwdhj9A0YINBr-4" value="" style="endArrow=none;html=1;rounded=0;exitX=0;exitY=1;exitDx=0;exitDy=0;entryX=1;entryY=0;entryDx=0;entryDy=0;" parent="1" source="fZNtqIoYwdhj9A0YINBr-2" target="Kjet4BSMFHoBCxyEnkaE-1" edge="1">
                    <mxGeometry width="50" height="50" relative="1" as="geometry">
                        <mxPoint x="189" y="235" as="sourcePoint"/>
                        <mxPoint x="340" y="140" as="targetPoint"/>
                    </mxGeometry>
                </mxCell>
                <mxCell id="fZNtqIoYwdhj9A0YINBr-5" value="payload?" style="ellipse;whiteSpace=wrap;html=1;align=center;" parent="1" vertex="1">
                    <mxGeometry x="350" y="150" width="100" height="40" as="geometry"/>
                </mxCell>
                <mxCell id="fZNtqIoYwdhj9A0YINBr-6" value="" style="endArrow=none;html=1;rounded=0;exitX=0;exitY=0.5;exitDx=0;exitDy=0;entryX=1;entryY=0.5;entryDx=0;entryDy=0;" parent="1" source="fZNtqIoYwdhj9A0YINBr-5" target="Kjet4BSMFHoBCxyEnkaE-1" edge="1">
                    <mxGeometry width="50" height="50" relative="1" as="geometry">
                        <mxPoint x="203" y="395" as="sourcePoint"/>
                        <mxPoint x="322" y="305" as="targetPoint"/>
                    </mxGeometry>
                </mxCell>
                <mxCell id="fZNtqIoYwdhj9A0YINBr-15" value="" style="edgeStyle=entityRelationEdgeStyle;fontSize=12;html=1;endArrow=ERoneToMany;rounded=0;exitX=0.5;exitY=0;exitDx=0;exitDy=0;entryX=1.003;entryY=0.874;entryDx=0;entryDy=0;entryPerimeter=0;" parent="1" source="fZNtqIoYwdhj9A0YINBr-16" target="Kjet4BSMFHoBCxyEnkaE-1" edge="1">
                    <mxGeometry width="100" height="100" relative="1" as="geometry">
                        <mxPoint x="464.5" y="455" as="sourcePoint"/>
                        <mxPoint x="330" y="180" as="targetPoint"/>
                        <Array as="points">
                            <mxPoint x="624.5" y="335"/>
                            <mxPoint x="604.5" y="335"/>
                            <mxPoint x="600.5" y="335"/>
                            <mxPoint x="604.5" y="335"/>
                            <mxPoint x="624.5" y="275"/>
                            <mxPoint x="624.5" y="335"/>
                        </Array>
                    </mxGeometry>
                </mxCell>
                <mxCell id="fZNtqIoYwdhj9A0YINBr-16" value="has" style="rhombus;whiteSpace=wrap;html=1;" parent="1" vertex="1">
                    <mxGeometry x="349" y="326" width="80" height="80" as="geometry"/>
                </mxCell>
                <mxCell id="fZNtqIoYwdhj9A0YINBr-17" value="" style="edgeStyle=entityRelationEdgeStyle;fontSize=12;html=1;endArrow=ERone;endFill=1;rounded=0;entryX=1;entryY=0.25;entryDx=0;entryDy=0;exitX=0.5;exitY=1;exitDx=0;exitDy=0;" parent="1" source="fZNtqIoYwdhj9A0YINBr-16" target="o5zWqy-yZP3sflRj8p0Q-21" edge="1">
                    <mxGeometry width="100" height="100" relative="1" as="geometry">
                        <mxPoint x="531.5" y="645" as="sourcePoint"/>
                        <mxPoint x="403.5" y="530" as="targetPoint"/>
                    </mxGeometry>
                </mxCell>
                <mxCell id="MDaI-EYoQhKzvCaFtTz6-1" value="is_active" style="ellipse;whiteSpace=wrap;html=1;align=center;" parent="1" vertex="1">
                    <mxGeometry x="252" y="669" width="100" height="40" as="geometry"/>
                </mxCell>
                <mxCell id="MDaI-EYoQhKzvCaFtTz6-2" value="" style="endArrow=none;html=1;rounded=0;exitX=0.75;exitY=1;exitDx=0;exitDy=0;entryX=0;entryY=0;entryDx=0;entryDy=0;" parent="1" source="o5zWqy-yZP3sflRj8p0Q-21" target="MDaI-EYoQhKzvCaFtTz6-1" edge="1">
                    <mxGeometry width="50" height="50" relative="1" as="geometry">
                        <mxPoint x="226.5" y="640" as="sourcePoint"/>
                        <mxPoint x="241.5" y="741" as="targetPoint"/>
                    </mxGeometry>
                </mxCell>
            </root>
        </mxGraphModel>
    </diagram>
</mxfile>